<svg width="61" height="60" viewBox="0 0 61 60" fill="none" xmlns="http://www.w3.org/2000/svg">
<g id="ant-design:logout-outlined">
<path id="Vector" d="M43.0433 38.1861H40.401C40.2206 38.1861 40.0514 38.2642 39.9387 38.4019C39.6756 38.7182 39.3937 39.0233 39.0967 39.3135C37.8823 40.517 36.4438 41.476 34.8608 42.1377C33.2208 42.8234 31.4581 43.1752 29.6778 43.1721C27.8774 43.1721 26.1334 42.8223 24.4947 42.1377C22.9117 41.476 21.4732 40.517 20.2588 39.3135C19.0422 38.1141 18.0721 36.6925 17.4022 35.1275C16.7069 33.5051 16.3574 31.7824 16.3574 30C16.3574 28.2177 16.7107 26.4949 17.4022 24.8726C18.0713 23.3061 19.0335 21.8959 20.2588 20.6866C21.4841 19.4773 22.9086 18.5247 24.4947 17.8624C26.1334 17.1777 27.8774 16.828 29.6778 16.828C31.4781 16.828 33.2221 17.174 34.8608 17.8624C36.447 18.5247 37.8715 19.4773 39.0967 20.6866C39.3937 20.9805 39.6718 21.2856 39.9387 21.5982C40.0514 21.7359 40.2243 21.814 40.401 21.814H43.0433C43.28 21.814 43.4266 21.5535 43.2951 21.3563C40.4123 16.921 35.3682 13.9852 29.6364 14.0001C20.6309 14.0224 13.4106 21.2596 13.5008 30.1637C13.591 38.9265 20.8 46 29.6778 46C35.3946 46 40.416 43.0679 43.2951 38.6437C43.4229 38.4465 43.28 38.1861 43.0433 38.1861ZM46.3846 29.7656L41.0512 25.5982C40.852 25.4419 40.5626 25.5833 40.5626 25.8326V28.6605H28.7607C28.5953 28.6605 28.46 28.7944 28.46 28.9582V31.0419C28.46 31.2056 28.5953 31.3396 28.7607 31.3396H40.5626V34.1675C40.5626 34.4168 40.8558 34.5582 41.0512 34.4019L46.3846 30.2344C46.4206 30.2066 46.4496 30.171 46.4696 30.1304C46.4896 30.0898 46.5 30.0452 46.5 30C46.5 29.9548 46.4896 29.9103 46.4696 29.8696C46.4496 29.829 46.4206 29.7935 46.3846 29.7656Z" fill="#CE0A0A"/>
</g>
</svg>
