<svg width="34" height="37" viewBox="0 0 34 37" fill="none" xmlns="http://www.w3.org/2000/svg">
<g id="bc 3">
<path id="Vector 8" d="M9.57519 18.3485L9.66576 17.2148L12.1415 17.9404H14.1039L14.1492 17.8648L14.2549 17.759L14.436 17.7136L14.9191 17.6683L15.5531 17.6078L16.0362 17.5776L16.489 17.5625L17.0023 17.5927L17.5155 17.6381L18.0288 17.7136L18.4967 17.8195L18.8892 17.8799L19.0855 17.9404L19.2364 18.0008L19.5233 18.1822L19.5987 18.2427L19.644 18.6961L20.2629 19.1042L20.9121 19.7542L21.5914 20.4193L22.4518 21.5831L22.8141 22.2935L23.1009 23.2911L23.2217 23.926V24.2434L22.0895 25.0899L18.8741 26.0875L14.904 26.4502L10.5111 26.0875L9.40914 25.6793L9.34875 25.2863V24.7875L9.40914 23.4876L9.49971 22.3691L9.59029 21.7494L9.45442 21.432V21.2657L9.57519 21.1599V20.8878V19.86V18.3485Z" fill="white"/>
<path id="Vector 14" d="M14.753 20.8574L14.1491 20.9934L13.8774 21.1748L13.8623 21.6131L13.968 22.2329L14.285 22.52L17.5909 22.3538L17.8778 22.2329L18.074 22.1724H18.4514L18.9194 22.0212L18.8892 21.3108L19.2364 20.7667V20.5853L18.5873 20.4795L17.5909 20.5248L16.4739 20.5551L15.3266 20.6911L14.753 20.8574Z" fill="#FFC106"/>
<path id="Vector 1" d="M10.013 11.4105L9.83181 11.5163L9.71105 11.5314L9.5299 11.5918L9.34875 11.7128L9.24308 11.9093L9.21289 12.1511L9.27327 12.3174L9.39404 12.4534L9.56009 12.5139L9.71105 12.4988L9.83181 12.4534L9.84691 12.665L9.80162 13.6475L9.63556 16.6857C9.59933 17.3628 12.4283 17.8848 13.8473 18.0611L14.1039 17.9553L14.1643 17.8344L14.2699 17.7437C14.3545 17.6228 16.0764 17.5825 16.9268 17.5775L17.2438 16.988L17.7269 15.9601L17.9382 15.3858L18.1042 14.7963L18.2099 14.3126V13.7231V13.058L18.1042 12.7557L17.7269 12.1058L17.1683 11.5163L16.5796 11.1837L16.1116 10.9419L15.7795 11.1837L15.5682 11.214L15.0398 11.2442C12.383 12.6953 10.5816 11.9596 10.013 11.4105Z" fill="#FEAA64"/>
<g id="Vector 9">
<path d="M14.8587 17.9706L14.602 18.031L14.6624 18.2577L14.753 18.424L14.6624 18.7112L14.5266 18.9682H14.7228L15.5531 18.8321L16.2777 18.8019H16.5645L16.957 18.8321L18.074 18.9077H18.4967L18.6326 18.7717L18.7081 18.5147L18.6628 18.2729L18.4061 18.0915L18.2099 18.0159L17.1834 17.8647H15.9305L14.8587 17.9706Z" fill="#FFECB2"/>
<path d="M14.1492 19.5728L13.7265 19.8297L13.651 20.0262L13.7265 20.2832L13.9378 20.4948L14.3152 20.6006H14.8134L15.5531 20.4948L16.3682 20.3739L17.1834 20.2832L18.074 20.2378L18.2854 20.1774L18.9647 20.2983V19.8297L19.1005 19.4972L18.2854 19.3158L17.1834 19.2402L16.1267 19.2705L15.1606 19.3763L14.1492 19.5728Z" fill="#FFECB2"/>
<path d="M14.2699 21.3261L14.1492 21.5377L14.1341 21.7796L14.2246 21.9761L14.4209 22.1423L14.7681 22.2028H15.1304L16.3078 22.1575L17.6061 22.0517L18.074 21.9912H18.376L18.7081 21.9005L18.7986 21.7796L19.0402 20.8727L18.5722 20.7366H18.1344H17.44L17.0777 20.7517L16.3682 20.8273L15.5833 20.9634L14.8134 21.1145L14.5416 21.2203L14.2699 21.3261Z" fill="#FFECB2"/>
<path d="M14.1492 22.9888L14.1341 22.7772L14.2397 22.6411L16.0512 22.6109L17.2589 22.5051H18.1042L18.3156 22.8528L18.074 23.3062L17.6061 23.4876L15.9455 23.6236L15.8097 23.4876L15.221 23.1853H14.4964L14.1492 22.9888Z" fill="#FFECB2"/>
</g>
<path id="Vector 10" d="M14.134 17.8195L14.3605 17.7288L15.1454 17.6381L15.7342 17.5776H16.806L17.6664 17.6381L18.225 17.759L18.9194 17.8951L19.0854 17.9404L19.2062 18.0009L19.5383 18.1671L19.644 18.3334V18.802L19.3873 19.2403H18.8137L18.1042 19.195L16.7003 19.1496L15.2398 19.331L14.3605 19.3915L14.1793 19.1496L14.4661 18.9985L15.2398 18.8927L16.0663 18.802H16.6097L17.123 18.8473L18.1797 18.9229L18.4816 18.8927L18.6175 18.7264L18.6929 18.4241L18.5722 18.1671L18.1797 18.016L17.2739 17.8799H16.0663L15.2209 17.9253L14.5265 18.0311L14.134 17.9857V17.8195Z" fill="#FFC106"/>
<g id="Vector 7">
<path d="M9.81669 30.1837L9.69592 29.564L10.662 29.6093L13.8321 29.8058L16.6852 29.7453L16.6399 28.6268H17.123V29.7453L20.6705 29.5186L20.8516 29.5791L21.063 29.7302L21.1536 29.8965L21.1988 30.0023L21.0177 30.1686L20.3535 30.3046L19.0553 30.4255L18.1193 30.486H17.3343L16.7607 30.6069L16.0814 30.7127L14.6473 30.7732L12.1414 30.5767L11.0394 30.4255L9.81669 30.1837Z" fill="white"/>
<path d="M11.4017 26.2991L10.3903 27.1153L10.5111 27.4478L11.6282 26.6165L11.4017 26.2991Z" fill="white"/>
<path d="M12.0659 22.1878L11.3414 22.9284L11.5225 23.14L11.8244 23.3516L12.1263 23.5028L12.7905 23.6842L13.1528 23.7295H14.2246L14.285 23.8807L14.1643 24.2434L15.5229 24.0923L15.8701 24.0016L15.8097 23.8353L15.6889 23.6237L15.7946 23.5179L15.9003 23.4272L15.9154 23.3063L15.8701 23.1702L15.8097 23.0947L15.6889 23.1098L15.5832 23.1702L15.4172 23.1551L15.1975 23.0493L15.07 23.004L14.8888 22.9737H14.7681L14.6624 23.004L14.4662 23.0644L14.285 23.0493L14.0737 22.9586L12.7151 22.0215L12.0659 22.1878Z" fill="white"/>
</g>
<path id="Vector 6" d="M12.0659 22.1878L11.3414 22.9284L11.5225 23.14L11.8244 23.3516L12.1263 23.5028L12.7905 23.6842L13.1528 23.7295H14.2246L14.285 23.8807L14.1643 24.2434L15.5229 24.0923L15.8701 24.0016L15.8097 23.8353L15.6889 23.6237L15.7946 23.5179L15.9003 23.4272L15.9154 23.3063L15.8701 23.1702L15.8097 23.0947L15.6889 23.1098L15.5832 23.1702L15.4172 23.1551L15.1975 23.0493L15.07 23.004L14.8888 22.9737H14.7681L14.6624 23.004L14.4662 23.0644L14.285 23.0493L14.0737 22.9586L12.7151 22.0215L12.0659 22.1878Z" fill="#FEAA64"/>
<path id="Vector 5" d="M14.6926 9.23382C12.7724 9.13709 10.9438 10.1004 10.2695 10.5942L10.179 10.7605L10.5714 10.6849L11.3111 10.4582L11.9904 10.1407L12.6094 9.91401L12.9566 9.74774L13.5604 9.58148L14.6926 9.38498V9.23382Z" fill="#FEAA64"/>
<path id="Vector 3" d="M13.6208 17.3204C11.7127 17.6348 10.2394 15.8391 9.74125 14.902L9.5752 16.3984L9.65067 16.474L10.013 16.8216L10.6319 17.1844L12.1868 17.6529L12.9415 17.8192L13.7567 17.925H14.0586L14.1039 17.8797L14.2247 17.7436L14.3001 17.7134L14.6172 17.6529L16.8815 17.5623L17.6665 16.1717L18.0439 15.1287L18.1345 14.5241L18.2552 13.8893V13.1335L18.0439 12.5591L17.7873 12.1208L17.3344 11.6371L16.9268 11.3046L16.1267 10.8813L15.9909 10.972L16.0663 11.093C16.489 11.3469 16.9671 11.884 17.1532 12.1208C17.8778 13.2091 17.4552 15.2244 17.1532 16.0961C16.8513 16.6886 16.3028 16.4639 16.0663 16.2775C15.5108 16.7491 14.2045 17.1693 13.6208 17.3204Z" fill="#E5985A"/>
<path id="Vector 4" d="M16.6399 11.6675L14.5869 12.0907V12.1512L14.6322 12.1814L14.8888 12.2116H15.2511L16.0059 12.1814H16.4286L16.7456 12.0454L16.8362 11.9547L16.8815 11.8186V11.7128L16.806 11.6675H16.6399Z" fill="#DF9556"/>
<path id="Vector 2" d="M15.6889 14.736L15.4624 14.7058L15.3417 15.6732L15.4473 15.7034H15.7945L16.1267 15.6883L16.4889 15.6127L16.655 15.522L16.8361 15.3709L16.9569 15.2046L17.0324 15.0383L17.0777 14.8418V14.6453V14.5244L16.9569 14.5698L16.8361 14.6453L16.5493 14.7058L16.3229 14.736L16.2021 14.7511L16.0059 14.736H15.6889Z" fill="white"/>
<g id="Group">
<path id="Vector" d="M12.5924 8.28997C12.5279 8.33431 12.4233 8.35446 12.2421 8.35043C12.0328 8.3464 11.9603 8.36253 11.8396 8.44314C11.7591 8.49957 11.6665 8.54391 11.6303 8.54391C11.5497 8.54391 11.3082 8.61646 11.1955 8.67692C11.1432 8.70514 11.115 8.70111 11.1029 8.66886C11.0828 8.6084 10.8493 8.61243 10.7527 8.68095C10.7084 8.70917 10.6078 8.74544 10.5313 8.75754C10.2455 8.80187 10.0764 8.86234 9.97174 8.95907C9.91136 9.01953 9.80669 9.0679 9.72618 9.07596C9.62152 9.08402 9.56516 9.1203 9.50478 9.21704C9.45647 9.29362 9.39207 9.34602 9.33973 9.35005C9.19884 9.35005 9.08613 9.51128 9.0821 9.71282C9.0821 9.9869 9.06197 10.0675 8.98951 10.1481C8.8607 10.2932 8.90095 10.4706 9.1143 10.6842L9.30753 10.8777L9.18676 10.9059C8.99354 10.9422 8.78019 11.1034 8.70773 11.2566C8.61917 11.442 8.62319 11.4702 8.73993 11.5871C8.90498 11.7564 9.13443 11.6959 9.43635 11.4017L9.58529 11.2525L9.65775 11.3493C9.72618 11.442 9.72618 11.446 9.6497 11.446C9.55711 11.446 9.3035 11.6516 9.23507 11.7846C9.21092 11.8289 9.17469 11.9257 9.15859 12.0023C9.07405 12.3771 9.43232 12.7318 9.73021 12.5746C9.8228 12.5222 9.8228 12.4134 9.74631 13.5621C9.71411 14.074 9.66983 14.9044 9.64567 15.4122C9.60944 16.1418 9.58932 16.3474 9.54101 16.3957C9.43635 16.4965 9.40414 16.6336 9.40414 16.9479C9.40414 17.2422 9.45245 17.4478 9.53296 17.4961C9.56114 17.5122 9.55711 17.7098 9.52491 18.1209C9.4927 18.524 9.48868 19.1044 9.50478 19.8904C9.53296 21.0472 9.53296 21.0593 9.44842 21.1359C9.34779 21.2286 9.33973 21.3616 9.4283 21.5309C9.48465 21.6397 9.48868 21.7203 9.44842 22.1838C9.21092 25.1263 9.22702 25.6422 9.59334 26.8716C9.74229 27.3835 9.74229 27.3714 9.68593 28.4677C9.62957 29.5238 9.66178 30.1002 9.77852 30.2211C9.8389 30.2775 11.115 30.5234 11.5981 30.5718C11.755 30.5879 12.1616 30.6322 12.5038 30.6766C14.2307 30.8942 16.2435 30.8821 16.9037 30.6524C17.1774 30.5556 17.2378 30.5516 18.0389 30.5516C19.3955 30.5556 20.7159 30.4146 21.0782 30.2291C21.2472 30.1445 21.2472 30.1405 21.2231 29.9752C21.1868 29.7696 21.0983 29.6689 20.732 29.4351L20.4461 29.2537L20.422 28.9554C20.3858 28.4597 20.4059 28.4073 20.6716 28.2783C21.1667 28.0445 22.0886 27.2343 22.5314 26.6378C22.7326 26.3718 23.0627 25.7268 23.1473 25.4286C23.3445 24.7393 23.3848 24.042 23.256 23.4051C23.1755 22.998 22.946 22.3169 22.7769 21.9863C22.628 21.6881 22.0966 20.9101 21.7303 20.4547C21.3157 19.9347 20.3012 18.9996 19.8947 18.7618C19.7377 18.6691 19.7135 18.6368 19.6893 18.4675C19.6732 18.3627 19.6451 18.2458 19.6249 18.2096C19.5646 18.0967 18.9929 17.8468 18.7232 17.8146C18.5904 17.7984 18.3368 17.746 18.1597 17.6977C17.9825 17.6493 17.6605 17.5969 17.4471 17.5848C17.2298 17.5727 17.0526 17.5526 17.0526 17.5405C17.0526 17.5284 17.1211 17.4115 17.2096 17.2744C17.8658 16.2305 18.3972 14.3844 18.3247 13.3767C18.2563 12.3731 17.5719 11.4944 16.4206 10.9301L16.2032 10.8213L16.2274 10.5996C16.2556 10.3376 16.1751 9.99496 16.014 9.69669C15.8973 9.47903 15.7886 9.40245 15.5149 9.35811C15.3579 9.3299 15.3418 9.3178 15.3297 9.19688C15.3136 9.03968 15.0922 8.80187 14.9272 8.76157C14.8668 8.74544 14.7983 8.70111 14.7702 8.66483C14.746 8.62855 14.6091 8.54794 14.4763 8.48748C14.2549 8.38671 14.2066 8.37865 14.0617 8.41492C13.9127 8.45523 13.8886 8.44717 13.7799 8.35849C13.639 8.2416 13.5102 8.20533 13.3371 8.23757C13.1922 8.26982 13.168 8.26982 12.8862 8.2416C12.7413 8.22548 12.6608 8.2416 12.5924 8.28997ZM14.3153 9.37424C13.325 9.49919 12.6648 9.68863 11.7148 10.1119C11.0989 10.3819 10.5071 10.6036 10.4145 10.5955C10.334 10.5915 11.5819 10.003 12.0771 9.81358C12.85 9.52337 13.8362 9.32183 14.5166 9.3178C14.6816 9.3178 14.6333 9.33393 14.3153 9.37424ZM15.4867 9.96675C15.6558 10.0796 15.7041 10.2086 15.6679 10.4464C15.6155 10.793 15.3458 10.9623 15.0801 10.8132C14.7983 10.652 14.6816 10.3215 14.8144 10.0796C14.9352 9.86598 15.2532 9.80955 15.4867 9.96675ZM13.6028 10.2126C13.6752 10.2408 13.7839 10.3255 13.8443 10.394C14.0617 10.656 13.953 11.18 13.635 11.3896C13.4015 11.5428 13.1237 11.5629 12.9184 11.4501C12.6849 11.317 12.5843 11.1437 12.5843 10.8656C12.5843 10.5431 12.7292 10.3053 12.9869 10.2005C13.1318 10.1441 13.4538 10.1481 13.6028 10.2126ZM9.37596 10.3174C9.48465 10.3698 9.71813 10.7447 9.67385 10.789C9.6336 10.8253 9.15053 10.3335 9.17871 10.2852C9.19482 10.257 9.21897 10.2408 9.23507 10.2489C9.25117 10.257 9.31558 10.2852 9.37596 10.3174ZM16.3401 11.1477C16.7628 11.3654 17.1734 11.6596 17.4351 11.9378C17.7893 12.3126 17.9181 12.5222 18.0469 12.9293C18.1435 13.2397 18.1476 13.2961 18.1274 13.8564C18.1113 14.3804 18.0912 14.5094 17.9624 14.9689C17.7088 15.8637 17.2257 16.9802 16.9077 17.3994L16.8071 17.5324H16.3965C15.7685 17.5364 14.3354 17.6372 14.2428 17.6896C14.1945 17.7138 14.1382 17.7702 14.114 17.8146C14.0536 17.9274 13.8 17.9193 13.0674 17.7944C11.8637 17.5888 10.6198 17.1777 10.0965 16.8069C9.6819 16.5126 9.69398 16.5408 9.73021 16.0007C9.84695 14.2957 9.91538 12.4658 9.8711 12.3489C9.84695 12.2844 9.8389 12.2884 9.78254 12.365C9.74229 12.4255 9.67788 12.4537 9.58529 12.4537C9.27935 12.4537 9.17871 12.0224 9.4283 11.7644C9.56516 11.6193 9.65775 11.5911 9.76644 11.6476C9.83085 11.6838 9.86708 11.6798 9.90733 11.6476C9.95564 11.6073 10.0281 11.6314 10.2696 11.7644C10.7929 12.0466 11.6021 12.2522 12.1777 12.2522C12.7936 12.2481 13.6309 12.0466 14.1261 11.7806C14.6293 11.5105 15.1204 11.2848 15.213 11.2848C15.2653 11.2848 15.4907 11.3372 15.7081 11.4057C15.9255 11.4702 16.2516 11.5589 16.4287 11.6073C16.8554 11.7201 16.8795 11.7362 16.8192 11.8692C16.7266 12.0708 16.5575 12.1071 15.5712 12.1232C14.9111 12.1353 14.6615 12.1272 14.6172 12.0909C14.5689 12.0506 14.5528 12.0547 14.5327 12.1111C14.5166 12.1514 14.5286 12.1917 14.5568 12.2119C14.7098 12.3086 16.2435 12.3005 16.5696 12.2038C16.8634 12.1151 17.0768 11.7846 16.9198 11.6556C16.8956 11.6314 16.6823 11.5669 16.4488 11.5065C16.2153 11.4501 15.9537 11.3815 15.8651 11.3573L15.7041 11.313L15.8329 11.2767C15.9054 11.2606 15.9939 11.2001 16.0342 11.1437C16.0744 11.0913 16.1107 11.043 16.1187 11.043C16.1227 11.043 16.2234 11.0913 16.3401 11.1477ZM9.18274 11.2284C9.02977 11.3493 8.93718 11.3735 9.05392 11.2687C9.1143 11.2122 9.18676 11.1639 9.21494 11.1639C9.24312 11.1639 9.22702 11.1961 9.18274 11.2284ZM10.5635 17.871C11.8034 18.2378 12.9828 18.4756 14.0295 18.5844C14.2831 18.6086 14.5286 18.6408 14.5729 18.661C14.6534 18.6892 14.6454 18.7013 14.4924 18.8585C14.3958 18.9512 14.2871 19.0238 14.2348 19.0238C14.1824 19.0238 14.1382 19.056 14.1261 19.0963C14.11 19.1689 14.0898 19.1689 13.5585 19.0963C12.3951 18.9431 10.8453 18.5643 10.0402 18.2378L9.70606 18.1048L9.69398 17.8387L9.6819 17.5727L9.88721 17.6533C9.99992 17.6977 10.3059 17.7944 10.5635 17.871ZM17.2539 17.6533C17.5075 17.6775 17.8899 17.7299 18.0993 17.7783C18.3086 17.8226 18.5501 17.8669 18.6347 17.871C18.8762 17.8911 18.9245 17.9677 18.9366 18.3506C18.9446 18.6489 18.9366 18.7013 18.8359 18.8827C18.7192 19.0842 18.7192 19.0842 18.5219 19.0802C18.4092 19.0762 18.0872 19.052 17.8054 19.0278C16.8031 18.9391 16.1831 18.9714 15.0036 19.1689C14.4441 19.2616 14.3797 19.2656 14.3233 19.2092C14.2871 19.1729 14.271 19.1326 14.2871 19.1205C14.3354 19.0721 15.0358 18.9512 15.692 18.8746C16.2999 18.8061 16.3562 18.8101 17.1533 18.8787C17.6082 18.919 18.1033 18.9552 18.2482 18.9552C18.5018 18.9593 18.5219 18.9512 18.6266 18.8263C18.7675 18.6529 18.8118 18.4272 18.7272 18.266C18.6427 18.1007 18.373 17.9959 17.7531 17.8911C17.2901 17.8145 17.1331 17.8065 16.2878 17.8266C15.7282 17.8387 15.1486 17.875 14.8708 17.9153C14.428 17.9798 14.1945 17.9758 14.1945 17.9032C14.1985 17.7742 14.275 17.7622 15.7645 17.6412C16.1509 17.609 16.8111 17.617 17.2539 17.6533ZM17.737 17.9556C18.3126 18.0483 18.5139 18.137 18.6226 18.3426C18.6628 18.4151 18.6508 18.4151 18.4133 18.399C18.2361 18.3869 18.1919 18.3909 18.2603 18.4151C18.3166 18.4353 18.4173 18.4514 18.4897 18.4554C18.5582 18.4595 18.6306 18.4796 18.6467 18.5038C18.6669 18.536 18.6145 18.5441 18.4777 18.524C17.9624 18.4635 17.737 18.4514 17.737 18.4877C17.737 18.5119 17.9221 18.5401 18.1516 18.5562C18.377 18.5723 18.5783 18.6005 18.6025 18.6247C18.6266 18.6489 18.6025 18.7013 18.534 18.7698L18.4253 18.8787L17.5679 18.8182C17.0969 18.786 16.4488 18.7658 16.1268 18.7658C15.6034 18.7739 14.8547 18.8545 14.6655 18.927C14.6051 18.9512 14.6051 18.9311 14.6856 18.7698L14.7782 18.5884L15.0761 18.5441C15.4787 18.4836 15.4988 18.4433 15.1123 18.4796L14.7983 18.5078V18.4071C14.7983 18.2861 14.8305 18.2741 15.2572 18.2337C15.4344 18.2176 15.6236 18.1934 15.6799 18.1773L15.7846 18.1451L15.6759 18.141C15.6155 18.137 15.382 18.1572 15.1606 18.1813C14.7782 18.2257 14.75 18.2257 14.6977 18.1531C14.6695 18.1128 14.6534 18.0645 14.6695 18.0483C14.6937 18.0241 15.2009 17.9597 15.6638 17.9234C16.167 17.879 17.3868 17.8992 17.737 17.9556ZM19.2667 18.0564C19.3995 18.1209 19.5243 18.2136 19.5485 18.2539C19.6571 18.4595 19.5485 18.9472 19.3552 19.1205C19.2828 19.181 19.2345 19.189 19.0251 19.1648C18.7997 19.1407 18.7836 19.1286 18.8359 19.0681C18.8681 19.0318 18.9366 18.923 18.9889 18.8222C19.0895 18.6247 19.1097 18.2579 19.0292 18.0443C19.005 17.9838 18.997 17.9355 19.009 17.9355C19.0171 17.9355 19.1338 17.9879 19.2667 18.0564ZM20.0919 19.1165L20.2449 19.2495L19.9269 19.4147C19.5001 19.6324 19.0694 19.8098 19.0412 19.7775C18.9929 19.7291 19.154 19.5397 19.2908 19.4833C19.3874 19.443 19.4277 19.4027 19.4196 19.3503C19.4116 19.314 19.4559 19.2213 19.5203 19.1487C19.5807 19.0762 19.641 18.9754 19.6531 18.923L19.6773 18.8303L19.8061 18.9069C19.8785 18.9472 20.0074 19.0439 20.0919 19.1165ZM10.3421 19.185C11.3163 19.4792 12.3508 19.7009 13.0714 19.7694L13.3371 19.7936L13.3572 20.0234C13.3773 20.2128 13.4297 20.3902 13.5424 20.6078C13.5545 20.636 13.3411 20.6199 13.1157 20.5716C13.0352 20.5554 13.0271 20.5353 13.0513 20.3821C13.0674 20.2572 13.0633 20.2289 13.0311 20.2733C13.007 20.3055 12.9869 20.3741 12.9869 20.4224C12.9869 20.4748 12.9788 20.5151 12.9667 20.5151C12.9587 20.5151 12.8339 20.4506 12.697 20.3741C12.214 20.1121 11.3485 19.9911 10.954 20.1322C10.8654 20.1645 10.7849 20.1927 10.7768 20.1927C10.7607 20.1927 10.7929 20.0073 10.8332 19.8783C10.8533 19.8259 10.8453 19.7896 10.8211 19.7896C10.797 19.7896 10.7527 19.8622 10.7285 19.9508C10.6923 20.0677 10.6601 20.108 10.6158 20.0959C10.33 20.0194 10.0764 19.9307 9.88721 19.838L9.6658 19.7291L9.65372 19.3744C9.64165 18.9472 9.60139 18.9593 10.3421 19.185ZM16.0785 19.1729C16.0382 19.181 15.9738 19.181 15.9376 19.1729C15.8973 19.1608 15.9295 19.1527 16.006 19.1527C16.0825 19.1527 16.1147 19.1608 16.0785 19.1729ZM15.7162 19.2132C15.6759 19.2213 15.6115 19.2213 15.5753 19.2132C15.535 19.2011 15.5672 19.1931 15.6437 19.1931C15.7202 19.1931 15.7524 19.2011 15.7162 19.2132ZM15.3941 19.2535C15.3539 19.2616 15.2895 19.2616 15.2532 19.2535C15.213 19.2414 15.2452 19.2334 15.3217 19.2334C15.3981 19.2334 15.4303 19.2414 15.3941 19.2535ZM15.0922 19.2938C15.064 19.3019 15.0157 19.3019 14.9916 19.2938C14.9634 19.2817 14.9835 19.2737 15.0399 19.2737C15.0962 19.2737 15.1164 19.2817 15.0922 19.2938ZM17.6082 19.3543C17.9423 19.3785 18.22 19.4147 18.22 19.4349C18.22 19.451 18.2039 19.4671 18.1798 19.4671C18.1597 19.4671 18.1033 19.5437 18.055 19.6324C17.9745 19.7936 17.9745 19.8581 18.0429 20.0959C18.063 20.1806 18.051 20.1806 17.427 20.2048C17.0768 20.2169 16.5816 20.2652 16.328 20.3096C15.4022 20.4668 14.6252 20.5635 14.4401 20.5353C14.1019 20.4869 13.7517 20.2531 13.7517 20.0758C13.7517 20.0234 13.9208 19.9508 14.3475 19.8299C14.5286 19.7775 14.6776 19.7211 14.6776 19.705C14.6776 19.6888 14.4844 19.7291 14.2468 19.7936C14.0093 19.8581 13.8081 19.9025 13.8 19.8944C13.7718 19.8622 13.9771 19.7493 14.2066 19.6727C14.5045 19.5679 15.4022 19.3906 15.8168 19.3503C16.328 19.2979 16.9319 19.3019 17.6082 19.3543ZM18.997 19.3341C18.9688 19.3422 18.9124 19.3422 18.8762 19.3341C18.8359 19.322 18.8601 19.314 18.9245 19.314C18.9929 19.314 19.0211 19.322 18.997 19.3341ZM18.9326 19.4913C19.0131 19.5155 19.0131 19.5236 18.9607 19.6526C18.9285 19.7251 18.9044 19.8863 18.9044 20.0113C18.9044 20.1322 18.8883 20.233 18.8681 20.233C18.7474 20.233 18.2321 20.1 18.1919 20.0597C18.0912 19.9549 18.1154 19.709 18.2402 19.5719C18.3247 19.4792 18.369 19.4671 18.5904 19.4671C18.7313 19.4671 18.8842 19.4792 18.9326 19.4913ZM21.2794 20.2007L21.5008 20.4385L21.4002 20.5192C21.1909 20.6804 19.9108 21.285 19.4881 21.422C18.8923 21.6155 18.8923 21.6155 19.005 21.2608C19.1459 20.8295 19.2948 20.6965 19.8987 20.4587C20.1684 20.3499 20.5226 20.1967 20.6837 20.1121C20.8447 20.0314 20.9976 19.9629 21.0178 19.9629C21.0419 19.9589 21.1587 20.0677 21.2794 20.2007ZM16.3804 20.4627C16.3522 20.4708 16.3039 20.4708 16.2797 20.4627C16.2516 20.4506 16.2717 20.4426 16.328 20.4426C16.3844 20.4426 16.4045 20.4506 16.3804 20.4627ZM16.1388 20.503C16.1107 20.5111 16.0543 20.5111 16.0181 20.503C15.9778 20.4909 16.002 20.4829 16.0664 20.4829C16.1348 20.4829 16.163 20.4909 16.1388 20.503ZM15.8571 20.5433C15.8289 20.5514 15.7806 20.5514 15.7564 20.5433C15.7282 20.5313 15.7484 20.5232 15.8047 20.5232C15.8611 20.5232 15.8812 20.5313 15.8571 20.5433ZM18.5984 20.628C18.5783 20.6884 18.4978 20.6965 17.6846 20.7005C16.8715 20.7046 16.7064 20.7167 15.8571 20.8497C14.8587 21.0069 14.4723 21.0915 14.3233 21.1842C14.1744 21.281 14.0737 21.4825 14.0737 21.6921C14.0737 21.9339 14.2428 22.1435 14.4803 22.208C14.7903 22.2927 17.3344 22.1677 18.2321 22.0266C18.3046 22.0146 18.3408 22.0266 18.3408 22.0629C18.3408 22.1032 18.2844 22.1153 18.1395 22.1153C17.9906 22.1113 17.906 22.1355 17.8135 22.204C17.6565 22.3209 17.2217 22.3572 15.5592 22.3934L14.3636 22.4217L14.2146 22.3289C14.0214 22.2121 13.9127 21.9783 13.9127 21.684C13.9127 21.2689 14.1502 20.9585 14.4602 20.9585C14.5286 20.9585 14.6574 20.9303 14.742 20.894C14.899 20.8295 15.4545 20.7207 16.0865 20.632C16.3884 20.5917 18.5179 20.5151 18.5904 20.5433C18.6025 20.5514 18.6065 20.5877 18.5984 20.628ZM15.5914 20.5796C15.5793 20.5917 15.5431 20.5957 15.5149 20.5837C15.4827 20.5716 15.4948 20.5595 15.539 20.5595C15.5833 20.5554 15.6075 20.5675 15.5914 20.5796ZM19.0694 20.6199C19.2103 20.6804 19.2264 20.6965 19.1741 20.7449C19.0895 20.8295 18.6628 20.7328 18.6628 20.628C18.6628 20.5353 18.844 20.5313 19.0694 20.6199ZM10.3944 20.7771L10.6319 20.8053L10.636 21.1842C10.64 21.3898 10.6561 21.6075 10.6682 21.6679L10.6963 21.7727L10.4629 21.7485C10.1287 21.7082 9.75839 21.6397 9.6819 21.5994C9.64567 21.5792 9.59334 21.5107 9.57321 21.4462C9.53698 21.3495 9.54504 21.3172 9.60944 21.2568C9.66983 21.2003 9.68593 21.1318 9.68593 20.894V20.6038L9.92343 20.6764C10.0523 20.7207 10.2656 20.765 10.3944 20.7771ZM13.8765 20.6643C13.9288 20.7288 13.9248 20.7328 13.8644 20.6804C13.796 20.628 13.7759 20.5957 13.8081 20.5957C13.8161 20.5957 13.8483 20.628 13.8765 20.6643ZM15.374 20.624C15.3458 20.632 15.2975 20.632 15.2734 20.624C15.2452 20.6119 15.2653 20.6038 15.3217 20.6038C15.378 20.6038 15.3981 20.6119 15.374 20.624ZM15.1486 20.6602C15.1365 20.6723 15.1003 20.6764 15.0721 20.6643C15.0399 20.6522 15.0519 20.6401 15.0962 20.6401C15.1405 20.6361 15.1647 20.6481 15.1486 20.6602ZM18.5179 20.7812C18.5743 20.8013 18.5743 20.8174 18.5219 20.9182C18.4455 21.0633 18.3972 21.0794 18.0147 21.0794C17.8215 21.0794 17.6967 21.0956 17.6967 21.1197C17.6967 21.148 17.8215 21.152 18.0671 21.1359C18.4173 21.1076 18.4334 21.1117 18.4052 21.1842C18.3891 21.2245 18.3569 21.4099 18.3327 21.5913C18.2885 21.8977 18.2804 21.9218 18.1838 21.942C17.8014 22.0226 14.8507 22.1919 14.6534 22.1435C14.2549 22.0468 14.0979 21.8412 14.1985 21.547C14.2428 21.414 14.2911 21.3656 14.436 21.2931C14.7058 21.16 16.2797 20.8618 17.113 20.7852C17.3988 20.761 18.4535 20.757 18.5179 20.7812ZM18.9366 20.894C18.9446 20.9061 18.8963 21.0754 18.8279 21.2729C18.7595 21.4744 18.7031 21.684 18.7031 21.7405C18.7031 21.8412 18.5904 21.9259 18.4535 21.9259C18.369 21.9259 18.4414 21.3172 18.5582 21.0633C18.6628 20.8376 18.6709 20.8295 18.7917 20.8537C18.8601 20.8658 18.9245 20.886 18.9366 20.894ZM11.9926 20.9787C12.1173 21.0109 12.3468 21.1036 12.5038 21.1802C12.7695 21.3132 12.7856 21.3293 12.7856 21.4543V21.5913L12.4595 21.5712C11.9442 21.543 11.4934 21.676 11.1271 21.9702C11.0466 22.0347 10.9701 22.0871 10.958 22.0871C10.9137 22.0871 10.809 21.6478 10.7849 21.3575L10.7607 21.0512L10.9177 20.9867C11.119 20.9021 11.6866 20.898 11.9926 20.9787ZM13.4055 21.4543L13.7678 21.5027L13.7759 21.7002C13.7839 21.805 13.8081 21.9581 13.8362 22.0347C13.8604 22.1113 13.8725 22.1798 13.8644 22.1879C13.8523 22.204 13.2163 22.1395 13.0835 22.1073C12.9869 22.0871 12.9063 21.8412 12.9063 21.5671C12.9063 21.3777 12.8701 21.3858 13.4055 21.4543ZM22.6602 22.1959C22.7367 22.3693 22.8132 22.5668 22.8293 22.6393C22.8574 22.7804 22.9138 22.7522 21.9436 23.1028C21.5411 23.248 20.5468 23.5099 19.9913 23.6147C19.005 23.8042 17.2781 23.9815 16.4206 23.9815C15.9537 23.9815 15.9255 23.9775 15.9255 23.9009C15.9255 23.8284 15.9537 23.8203 16.2797 23.8203C16.473 23.8203 16.8111 23.8002 17.0325 23.776C17.2539 23.7558 17.6524 23.7195 17.9181 23.6994C18.3529 23.6671 18.4414 23.647 18.7836 23.4979C19.2063 23.3165 19.323 23.2157 19.3874 22.9739C19.4277 22.8247 19.4438 22.8086 19.6612 22.7481C20.5669 22.4942 21.5693 22.1879 21.9436 22.0508C22.1892 21.9622 22.4146 21.8896 22.4509 21.8896C22.4911 21.8856 22.5636 21.9944 22.6602 22.1959ZM18.8239 21.9662C18.8239 22.0065 18.7554 22.0428 18.5542 22.1032C18.4857 22.1274 18.4616 22.1153 18.4616 22.071C18.4616 22.0347 18.5179 21.9944 18.5944 21.9702C18.7715 21.9178 18.8239 21.9178 18.8239 21.9662ZM12.8983 22.3773C13.0996 22.5627 13.2767 22.6756 13.6108 22.8368C14.2066 23.123 14.3716 23.1593 14.6172 23.0504C14.8305 22.9577 14.9513 22.9698 15.2492 23.119C15.3539 23.1714 15.4666 23.2157 15.5028 23.2157C15.539 23.2157 15.5753 23.2439 15.5873 23.2762C15.6236 23.3648 15.692 23.3487 15.6638 23.26C15.6518 23.2197 15.6679 23.1673 15.7001 23.1391C15.7443 23.0988 15.7685 23.1109 15.8208 23.1835C15.8571 23.2318 15.8852 23.2963 15.8852 23.3205C15.8852 23.385 15.7484 23.4979 15.6236 23.5301L15.5149 23.5623L15.6598 23.7115C15.8571 23.9211 15.8208 23.9977 15.539 23.9694C15.3619 23.9533 15.3056 23.9614 15.221 24.0299C15.1204 24.1065 15.1123 24.1065 14.9231 24.038C14.7299 23.9694 14.7259 23.9694 14.6011 24.0581C14.3958 24.2032 14.3354 24.1629 14.3354 23.8808C14.3354 23.647 14.3314 23.6389 14.2348 23.651C13.8644 23.6913 13.015 23.6631 12.7292 23.5986C12.3387 23.518 11.9483 23.3648 11.7591 23.2197C11.6826 23.1633 11.5779 23.0867 11.5296 23.0504L11.437 22.9819L11.5175 22.8932C11.8034 22.5668 12.3911 22.1597 12.6205 22.1314C12.6286 22.1274 12.7534 22.2403 12.8983 22.3773ZM10.0523 22.5909C10.2374 22.6232 10.5393 22.6635 10.7205 22.6796L11.0506 22.7038L11.1794 22.9174C11.2519 23.0343 11.3243 23.123 11.3404 23.1109C11.3605 23.1028 11.4813 23.1714 11.6142 23.2721C12.1294 23.651 12.7695 23.8284 13.639 23.8364C14.1543 23.8405 14.1945 23.8445 14.1945 23.9171C14.1945 23.9896 14.1704 23.9936 13.7839 23.9694C13.2807 23.9372 12.85 23.8929 11.9805 23.78C11.3082 23.6954 11.1794 23.6752 10.1207 23.4737L9.52491 23.3608V23.0787C9.52491 22.6474 9.56114 22.4821 9.64567 22.5103C9.6819 22.5224 9.86708 22.5587 10.0523 22.5909ZM18.0791 22.6877C18.0912 22.7078 17.9423 22.7401 17.737 22.7562C17.5397 22.7683 17.3747 22.8005 17.3747 22.8207C17.3747 22.8408 17.4351 22.8489 17.5075 22.8368C17.9262 22.7723 18.1395 22.7683 18.1395 22.8288C18.1395 22.9658 18.0872 23.0142 17.9423 23.0182C17.8618 23.0222 17.745 23.0384 17.6766 23.0585C17.584 23.0827 17.6162 23.0867 17.8054 23.0787C18.1395 23.0666 18.0912 23.1149 17.7289 23.1593L17.4351 23.1915L17.6766 23.2157C17.9382 23.2359 17.9302 23.2681 17.6283 23.3568C17.3425 23.4374 16.9319 23.4898 16.3683 23.522C15.9496 23.5422 15.8732 23.5382 15.9174 23.4938C16.0503 23.3528 15.8973 22.9658 15.7323 23.0343C15.4626 23.1472 15.4666 23.1472 15.2532 23.0384C15.0117 22.9174 14.6897 22.8973 14.5407 22.994C14.3918 23.0948 14.118 22.9537 14.2307 22.8408C14.2629 22.8086 14.6615 22.7844 15.4746 22.7602C16.1308 22.7441 16.8071 22.7159 16.9721 22.6957C17.4029 22.6514 18.051 22.6433 18.0791 22.6877ZM23.0909 23.9171V24.171L22.6199 24.429C22.3583 24.57 21.9275 24.7796 21.6578 24.8965C21.1265 25.1222 19.8383 25.5455 19.2063 25.6946C17.7893 26.0372 15.6518 26.1984 13.6108 26.1219C11.6061 26.0453 10.6521 25.9243 9.70203 25.6301L9.4444 25.5495V24.9691C9.4444 24.6466 9.44842 24.3846 9.45647 24.3846C9.4605 24.3846 9.64567 24.429 9.86305 24.4854C10.7084 24.699 12.3307 24.9247 13.478 24.9852C14.4843 25.0416 16.7145 25.0416 17.419 24.9892C18.9124 24.8723 20.4542 24.5902 21.4807 24.2435C22.153 24.0178 22.8735 23.7518 22.9701 23.6954C23.0788 23.6349 23.0909 23.6551 23.0909 23.9171ZM11.3404 26.6096C11.2116 26.8232 11.0103 26.9925 10.7607 27.1013C10.5031 27.2182 10.491 27.2222 10.491 27.1739C10.491 27.1537 10.5595 27.1174 10.644 27.0933C10.9016 27.0167 11.1472 26.8272 11.276 26.6096C11.3444 26.4967 11.4008 26.4242 11.4089 26.4443C11.4169 26.4645 11.3887 26.541 11.3404 26.6096ZM17.0084 29.3142C17.0124 29.5399 16.9963 29.6608 16.9721 29.6447C16.948 29.6286 16.9319 29.4432 16.9359 29.2094C16.9359 28.9434 16.948 28.8265 16.9721 28.8789C16.9922 28.9232 17.0084 29.1207 17.0084 29.3142ZM20.901 29.6689C21.05 29.7576 21.1385 29.8825 21.0983 29.947C21.0057 30.0961 20.4985 30.213 19.6974 30.2695C19.3834 30.2936 18.9164 30.3299 18.6628 30.3501C18.1435 30.3944 17.6363 30.4025 17.5156 30.3662C17.4471 30.3501 17.4351 30.3178 17.4471 30.205C17.4592 30.1203 17.4391 30.0276 17.3988 29.9672C17.3626 29.9148 17.3344 29.8624 17.3344 29.8583C17.3344 29.8503 17.6041 29.8503 17.9382 29.8583L18.5421 29.8704V29.9833C18.5421 30.1002 18.6266 30.213 18.6749 30.1606C18.691 30.1485 18.7031 30.076 18.7031 29.9994C18.7031 29.8462 18.7111 29.8422 19.0493 29.81L19.2908 29.7898V29.9792C19.2868 30.2332 19.3915 30.2453 19.4357 29.9954C19.4518 29.9027 19.472 29.81 19.484 29.7898C19.4961 29.7696 19.6853 29.7414 19.9027 29.7293C20.2167 29.7052 20.5186 29.6568 20.7521 29.5883C20.7601 29.5842 20.8286 29.6205 20.901 29.6689ZM10.2898 29.7293C10.4548 29.7576 11.0989 29.8059 11.7228 29.8301L12.854 29.8785L12.8379 30.0478C12.8218 30.1687 12.8339 30.2251 12.8822 30.2654C12.9748 30.342 13.0191 30.2856 13.0352 30.0679L13.0472 29.8865L13.2445 29.8744C13.3532 29.8664 13.486 29.8704 13.5384 29.8865C13.6229 29.9067 13.6309 29.9268 13.6068 30.0437C13.5706 30.2412 13.6189 30.3581 13.7235 30.342C13.8 30.3299 13.8121 30.3057 13.8121 30.1284V29.9268H14.9795C15.6236 29.9228 16.3482 29.9067 16.5977 29.8906L17.0486 29.8543L17.1734 29.9792C17.4351 30.2412 17.2539 30.4146 16.5494 30.5798C15.9657 30.7128 13.7557 30.6685 12.4032 30.4911C12.1616 30.4589 11.7269 30.4146 11.437 30.3904C10.8493 30.342 10.5152 30.2936 10.1207 30.205L9.85098 30.1445L9.82682 29.9551C9.81475 29.8503 9.79462 29.7334 9.78657 29.6931C9.77449 29.6286 9.79059 29.6205 9.87915 29.6447C9.93954 29.6608 10.1247 29.6971 10.2898 29.7293Z" fill="black"/>
<path id="Vector_2" d="M9.50478 2.4577C9.17469 2.47382 7.7255 2.50204 6.28436 2.51816C4.34004 2.54234 3.6557 2.5625 3.62349 2.59877C3.58726 2.63505 3.57116 3.18323 3.57116 4.79148C3.56714 5.97248 3.55908 6.95597 3.54701 6.9721C3.5148 7.0245 3.4826 34.1552 3.5148 34.7316L3.53896 35.2193L3.74426 35.2435C3.85697 35.2556 7.09349 35.2798 10.9338 35.2919C18.5582 35.3161 19.2425 35.304 21.2392 35.0863C22.318 34.9735 23.8558 34.7397 24.4958 34.5986C25.2929 34.4213 26.267 34.0585 27.1768 33.6071C27.8732 33.2604 28.8474 32.422 29.6123 31.5191C30.3852 30.6082 31.1701 29.0282 31.2989 28.1333C31.4439 27.1257 31.464 26.8879 31.464 26.1986C31.464 24.8926 31.2587 23.7197 30.8561 22.7241C30.6347 22.1679 30.2483 21.4141 30.0712 21.1763C29.9866 21.0675 29.8095 20.8337 29.6767 20.6564C29.2379 20.0679 28.622 19.4955 27.7806 18.899C26.9675 18.3186 25.5867 17.6978 24.2382 17.3109C23.9524 17.2262 23.7108 17.1577 23.7068 17.1496C23.6988 17.1456 23.8558 17.0166 24.049 16.8594C24.528 16.4725 25.4016 15.6704 25.7196 15.3237C26.4965 14.4733 27.048 13.385 27.1849 12.4418C27.2573 11.9057 27.2372 10.9424 27.1366 10.378C26.9554 9.35828 26.3154 8.01202 25.47 6.85118C25.2365 6.53275 24.4556 5.74273 24.0168 5.37996C23.421 4.89225 22.3381 4.23927 21.4767 3.84426C20.5951 3.43716 20.3898 3.36058 19.7417 3.16307C18.6025 2.82046 16.8393 2.52219 15.5632 2.4577C14.75 2.41336 10.3984 2.41739 9.50478 2.4577ZM14.899 7.40741C16.5696 7.63717 18.063 8.37075 19.2103 9.5316C19.6209 9.94676 19.9993 10.6481 20.1684 11.3011C20.2771 11.7162 20.3294 12.5425 20.273 12.998C20.1322 14.1992 19.7336 15.3318 19.0734 16.4161C18.9285 16.6539 18.8198 16.8514 18.8279 16.8594C18.8359 16.8675 19.0412 16.9602 19.2868 17.0731C19.7377 17.2746 20.6514 17.8228 21.2714 18.2621C22.5112 19.1408 23.3969 20.084 24.1094 21.2811C24.4515 21.8616 24.6126 22.2687 24.7535 22.9297C24.8742 23.494 24.8823 23.5585 24.8823 24.4452C24.8823 25.4569 24.846 25.7955 24.6609 26.5009C24.5119 27.0733 24.4636 27.2022 24.2623 27.5892C23.6867 28.7057 23.0788 29.4353 22.1328 30.1447C21.8309 30.3704 21.0983 30.7452 20.6756 30.8863C19.6934 31.2168 17.5719 31.3579 14.8386 31.2733C13.8564 31.241 12.4434 31.237 10.7889 31.2531L8.24882 31.2813L8.26492 22.6838C8.27297 17.0932 8.26492 13.5019 8.23674 12.4136C8.19246 10.8376 8.23674 7.43966 8.30115 7.3792C8.3414 7.33486 10.3662 7.30665 12.3226 7.31471C14.0456 7.32277 14.3716 7.33486 14.899 7.40741Z" fill="black"/>
<g id="Vector 13">
<path d="M15.2059 19.316C16.0754 19.1709 17.7017 19.2959 18.4061 19.3765L18.4364 19.2405C18.0489 19.2052 17.1502 19.1286 16.6551 19.1044C16.1599 19.0802 15.5028 19.1447 15.2361 19.18L13.968 19.4218C13.7617 19.4722 13.337 19.6062 13.2887 19.7393C13.2404 19.8723 13.3088 20.1776 13.3491 20.3136C13.4578 20.6885 13.7567 20.883 13.8925 20.9334C14.0375 20.9817 14.3957 20.9132 14.5567 20.8729C14.8949 20.8124 15.9456 20.6159 16.4286 20.5252L18.1646 20.4648L18.1193 20.2381C17.6614 20.2431 17.0928 20.2834 16.4739 20.3741C16.0316 20.4389 15.0449 20.5454 14.6171 20.6462C13.968 20.6159 13.8825 20.4849 13.7869 20.4043C13.6661 20.2229 13.6007 20.0617 13.6359 19.9509C13.7325 19.7695 13.8875 19.6234 14.0284 19.573C14.5115 19.4158 15.0146 19.3362 15.2059 19.316Z" fill="#008979"/>
<path d="M18.5118 19.3916V19.2707L19.161 19.2858V19.4521L18.5118 19.3916Z" fill="#008979"/>
<path d="M18.225 20.4648L18.1797 20.2229C18.2703 20.102 18.693 20.3136 18.9496 20.3136L18.8892 20.495C18.7685 20.4104 18.3508 20.4648 18.225 20.4648Z" fill="#008979"/>
</g>
<path id="Vector 11" d="M17.7721 22.3694L14.1945 22.4903V22.6264L15.1153 22.6112H15.9758C16.3129 22.6012 17.0777 22.5689 17.44 22.5206C17.8023 22.4722 17.9734 22.4702 18.0137 22.4752C18.1193 22.4903 18.225 22.5357 18.3156 22.6566C18.388 22.7533 18.3357 22.9589 18.3005 23.0496C18.1435 23.2914 17.7923 23.4426 17.6363 23.4879L15.7191 23.6088L15.8399 23.7751L17.0174 23.7147C17.284 23.7096 17.8869 23.6814 18.1646 23.6088C18.4424 23.5363 18.5334 23.2914 18.5873 23.1403C18.6412 22.9891 18.6175 22.7171 18.6175 22.7171C18.6024 22.6264 18.5903 22.451 18.3609 22.2938C18.1314 22.1366 17.9432 22.2283 17.8778 22.2938L17.7721 22.3694Z" fill="#008979"/>
<path id="Vector 12" d="M19.1912 23.1553C19.4327 22.6595 19.0905 22.2534 18.8893 22.1123L18.4817 22.203C18.844 22.602 18.7635 23.1956 18.6779 23.4424C18.7383 23.4062 19.0453 23.2359 19.1912 23.1553Z" fill="#008979"/>
<path id="Vector_3" d="M15.1606 10.0995C15.1284 10.1318 15.1083 10.2124 15.1083 10.2769C15.1083 10.3414 15.1284 10.422 15.1606 10.4542C15.221 10.5308 15.3659 10.5389 15.4343 10.4704C15.4947 10.4099 15.4988 10.2164 15.4424 10.1116C15.3901 10.0189 15.229 10.0109 15.1606 10.0995ZM15.3901 10.3414C15.4223 10.426 15.3377 10.5107 15.2773 10.4502C15.225 10.3978 15.2572 10.2769 15.3216 10.2769C15.3458 10.2769 15.374 10.3051 15.3901 10.3414Z" fill="black"/>
<path id="Vector_4" d="M13.4297 10.4382C13.2364 10.6316 13.325 10.9299 13.5826 10.9541C13.7396 10.9702 13.8081 10.8533 13.7799 10.6316C13.7436 10.3616 13.5907 10.2769 13.4297 10.4382ZM13.7316 10.7606C13.7316 10.8332 13.7074 10.8654 13.639 10.8735C13.5424 10.8896 13.486 10.8009 13.5263 10.6961C13.5383 10.6599 13.5867 10.6397 13.639 10.6478C13.7074 10.6558 13.7316 10.6881 13.7316 10.7606Z" fill="black"/>
<path id="Vector_5" d="M9.47256 11.8368C9.4162 11.8892 9.4484 11.9174 9.54501 11.8973C9.65773 11.8771 9.67786 11.9336 9.58527 12.0102C9.50879 12.0746 9.50879 12.248 9.58527 12.2762C9.66176 12.3084 9.84693 12.2601 9.84693 12.2117C9.84693 12.1915 9.79057 12.1835 9.72214 12.1996C9.60942 12.2198 9.60137 12.2157 9.61345 12.1311C9.61747 12.0787 9.66176 12.0182 9.70604 11.994C9.75032 11.9698 9.7946 11.9457 9.80667 11.9376C9.81875 11.9295 9.79057 11.8973 9.75032 11.865C9.66578 11.8046 9.51684 11.7885 9.47256 11.8368Z" fill="black"/>
<path id="Vector_6" d="M17.1895 14.2555C17.0446 14.5497 16.7628 14.6666 16.1268 14.6989C15.6679 14.719 15.4827 14.6787 15.4827 14.5618C15.4827 14.457 15.2895 14.187 15.2211 14.187C15.1405 14.187 15.1446 14.2071 15.2372 14.3401C15.4304 14.6062 15.4223 15.1342 15.2211 15.7267C15.0882 16.1056 15.0882 16.1016 15.1607 16.1016C15.1929 16.1016 15.2653 16.0209 15.3217 15.9202L15.4223 15.7388L15.845 15.7307C16.6944 15.7146 17.113 15.4123 17.1614 14.7755C17.1694 14.6344 17.2137 14.457 17.266 14.3603C17.3264 14.2353 17.3385 14.1749 17.3063 14.1426C17.2741 14.1104 17.2419 14.1426 17.1895 14.2555ZM17.0366 14.7996C16.9802 15.2148 16.7065 15.5131 16.2798 15.6259C16.0543 15.6824 15.4988 15.6985 15.4666 15.6461C15.4586 15.63 15.4666 15.5332 15.4908 15.4325L15.535 15.243L15.9899 15.2269C16.2435 15.2188 16.4609 15.1987 16.473 15.1826C16.5374 15.1221 16.4448 15.11 16.2073 15.1543C16.0704 15.1785 15.8611 15.1866 15.7403 15.1705L15.523 15.1463V14.9447C15.523 14.7634 15.531 14.7472 15.6075 14.7714C15.8571 14.852 16.6541 14.7755 16.8916 14.6465C17.0486 14.5618 17.0647 14.578 17.0366 14.7996Z" fill="black"/>
<path id="Vector_7" d="M16.9681 16.2467C16.8393 16.3878 16.8071 16.4039 16.626 16.4039C16.5012 16.4039 16.3804 16.3757 16.2959 16.3233C16.151 16.2346 16.0865 16.2225 16.0865 16.283C16.0865 16.3515 16.3241 16.4764 16.5092 16.5047C16.783 16.545 17.1734 16.3394 17.1734 16.154C17.1734 16.0492 17.1292 16.0653 16.9681 16.2467Z" fill="black"/>
<path id="Vector_8" d="M17.1774 19.6442C17.2056 19.6724 17.8175 19.6845 17.8457 19.6563C17.8577 19.6402 17.7128 19.6281 17.5156 19.6281C17.3183 19.6281 17.1694 19.6362 17.1774 19.6442Z" fill="black"/>
<path id="Vector_9" d="M17.3143 19.7898C17.2982 19.814 17.3828 19.8301 17.5438 19.826C17.7853 19.822 17.7893 19.818 17.6364 19.7857C17.415 19.7414 17.3425 19.7414 17.3143 19.7898Z" fill="black"/>
<path id="Vector_10" d="M14.1663 19.995C14.0254 20.0393 13.9127 20.0877 13.9127 20.1078C13.9127 20.128 14.0134 20.1078 14.1422 20.0675C14.267 20.0232 14.3918 19.9909 14.424 19.9909C14.4521 19.9909 14.4763 19.9708 14.4763 19.9506C14.4763 19.8982 14.4602 19.9022 14.1663 19.995Z" fill="black"/>
<path id="Vector_11" d="M17.5156 21.2811C17.427 21.3053 17.4874 21.3134 17.7249 21.3174C17.9061 21.3174 18.0671 21.3053 18.0792 21.2811C18.1073 21.2327 17.7008 21.2327 17.5156 21.2811Z" fill="black"/>
<path id="Vector_12" d="M14.4964 21.6032C14.4803 21.6274 14.5688 21.6436 14.7339 21.6436C14.8828 21.6436 14.9996 21.6274 14.9996 21.6032C14.9996 21.5791 14.8949 21.5629 14.7621 21.5629C14.6292 21.5629 14.5085 21.5791 14.4964 21.6032Z" fill="black"/>
<path id="Vector_13" d="M17.9382 21.5914C17.7007 21.6156 17.6283 21.6841 17.8456 21.6841C18.067 21.6841 18.2643 21.6397 18.2361 21.5994C18.224 21.5793 18.1918 21.5672 18.1677 21.5712C18.1395 21.5753 18.0389 21.5833 17.9382 21.5914Z" fill="black"/>
<path id="Vector_14" d="M14.4964 21.8049C14.3072 21.8291 14.3153 21.8331 14.6091 21.8371C14.7943 21.8412 14.9191 21.8291 14.9191 21.8049C14.9191 21.7605 14.8144 21.7605 14.4964 21.8049Z" fill="black"/>
<path id="Vector_15" d="M15.8853 35.3883C15.8853 35.4085 15.9054 35.4287 15.9256 35.4287C15.9498 35.4287 15.9659 35.4085 15.9659 35.3883C15.9659 35.3641 15.9498 35.348 15.9256 35.348C15.9054 35.348 15.8853 35.3641 15.8853 35.3883Z" fill="black"/>
</g>
</g>
</svg>
