<svg width="169" height="36" viewBox="0 0 169 36" fill="none" xmlns="http://www.w3.org/2000/svg">
<path d="M0 35.097V3.01306H4.8209C6.96815 3.01306 8.67901 3.1793 9.9535 3.51178C11.2418 3.84425 12.3293 4.40531 13.2159 5.19494C14.1164 6.01228 14.8298 7.03048 15.3562 8.24956C15.8965 9.4825 16.1667 10.7293 16.1667 11.9899C16.1667 14.2895 15.287 16.2359 13.5276 17.829C15.2316 18.4109 16.5753 19.4291 17.5589 20.8837C18.5563 22.3244 19.055 24.0006 19.055 25.9124C19.055 28.4198 18.1684 30.5393 16.3952 32.271C15.3285 33.3377 14.1302 34.0788 12.8003 34.4944C11.3457 34.8961 9.52406 35.097 7.33526 35.097H0ZM4.84168 16.79H6.35861C8.15952 16.79 9.47557 16.3952 10.3068 15.6056C11.1518 14.8021 11.5743 13.6246 11.5743 12.073C11.5743 10.563 11.1449 9.42016 10.286 8.64438C9.42708 7.85475 8.1803 7.45993 6.54562 7.45993H4.84168V16.79ZM4.84168 30.5462H7.83397C10.0228 30.5462 11.6297 30.1168 12.6549 29.2579C13.7354 28.3297 14.2757 27.1522 14.2757 25.7253C14.2757 24.34 13.7562 23.1764 12.7172 22.2343C11.7059 21.3062 9.89809 20.8421 7.29369 20.8421H4.84168V30.5462Z" fill="black"/>
<path d="M21.6989 24.8318C21.6989 21.9088 22.7448 19.4221 24.8366 17.3719C26.9284 15.3216 29.4774 14.2965 32.4836 14.2965C35.5035 14.2965 38.0664 15.3285 40.1721 17.3927C42.25 19.4568 43.289 21.9919 43.289 24.998C43.289 28.0319 42.2431 30.5739 40.1513 32.6242C38.0456 34.6606 35.462 35.6788 32.4004 35.6788C29.3666 35.6788 26.8245 34.6399 24.7743 32.5619C22.724 30.5116 21.6989 27.9349 21.6989 24.8318ZM26.4782 24.9149C26.4782 26.9375 27.0185 28.5375 28.099 29.7151C29.2073 30.9064 30.6688 31.5021 32.4836 31.5021C34.3122 31.5021 35.7737 30.9134 36.8681 29.7358C37.9625 28.5583 38.5097 26.986 38.5097 25.0188C38.5097 23.0517 37.9625 21.4793 36.8681 20.3018C35.7598 19.1105 34.2983 18.5148 32.4836 18.5148C30.6965 18.5148 29.2488 19.1105 28.1406 20.3018C27.0323 21.4932 26.4782 23.0309 26.4782 24.9149Z" fill="black"/>
<path d="M45.6627 24.8318C45.6627 21.9088 46.7086 19.4221 48.8005 17.3719C50.8923 15.3216 53.4413 14.2965 56.4474 14.2965C59.4674 14.2965 62.0302 15.3285 64.1359 17.3927C66.2139 19.4568 67.2529 21.9919 67.2529 24.998C67.2529 28.0319 66.207 30.5739 64.1152 32.6242C62.0095 34.6606 59.4258 35.6788 56.3643 35.6788C53.3305 35.6788 50.7884 34.6399 48.7381 32.5619C46.6879 30.5116 45.6627 27.9349 45.6627 24.8318ZM50.4421 24.9149C50.4421 26.9375 50.9823 28.5375 52.0629 29.7151C53.1711 30.9064 54.6326 31.5021 56.4474 31.5021C58.276 31.5021 59.7375 30.9134 60.8319 29.7358C61.9263 28.5583 62.4735 26.986 62.4735 25.0188C62.4735 23.0517 61.9263 21.4793 60.8319 20.3018C59.7237 19.1105 58.2622 18.5148 56.4474 18.5148C54.6604 18.5148 53.2127 19.1105 52.1044 20.3018C50.9962 21.4932 50.4421 23.0309 50.4421 24.9149Z" fill="black"/>
<path d="M75.2579 0V21.4031L81.8451 14.8575H88.1206L79.3307 23.3564L88.7647 35.097H82.6971L76.006 26.5565L75.2579 27.3046V35.097H70.5824V0H75.2579Z" fill="black"/>
<path d="M105.892 15.7303V21.9434C104.825 20.6412 103.869 19.7477 103.024 19.2628C102.193 18.7641 101.217 18.5148 100.094 18.5148C98.3351 18.5148 96.8736 19.1312 95.71 20.3642C94.5463 21.5971 93.9645 23.1417 93.9645 24.998C93.9645 26.8959 94.5255 28.4544 95.6476 29.6735C96.7836 30.8926 98.2312 31.5021 99.9906 31.5021C101.113 31.5021 102.103 31.2597 102.962 30.7748C103.793 30.3038 104.77 29.3895 105.892 28.0319V34.2035C103.994 35.1871 102.096 35.6788 100.198 35.6788C97.0676 35.6788 94.4493 34.6676 92.3437 32.645C90.238 30.6086 89.1851 28.0804 89.1851 25.0604C89.1851 22.0404 90.2518 19.4914 92.3852 17.4134C94.5186 15.3355 97.1368 14.2965 100.24 14.2965C102.235 14.2965 104.119 14.7744 105.892 15.7303Z" fill="black"/>
<path d="M109.907 0H114.583V16.5407C116.245 15.0445 118.081 14.2965 120.089 14.2965C122.375 14.2965 124.204 15.0376 125.575 16.5199C126.739 17.8083 127.321 19.8654 127.321 22.6915V35.097H122.645V23.1279C122.645 21.507 122.354 20.3365 121.773 19.6161C121.205 18.8819 120.283 18.5148 119.009 18.5148C117.374 18.5148 116.224 19.0204 115.559 20.0317C114.908 21.0568 114.583 22.8162 114.583 25.3097V35.097H109.907V0Z" fill="black"/>
<path d="M130.671 24.8318C130.671 21.9088 131.717 19.4221 133.809 17.3719C135.901 15.3216 138.45 14.2965 141.456 14.2965C144.476 14.2965 147.039 15.3285 149.144 17.3927C151.222 19.4568 152.261 21.9919 152.261 24.998C152.261 28.0319 151.215 30.5739 149.124 32.6242C147.018 34.6606 144.434 35.6788 141.373 35.6788C138.339 35.6788 135.797 34.6399 133.747 32.5619C131.696 30.5116 130.671 27.9349 130.671 24.8318ZM135.45 24.9149C135.45 26.9375 135.991 28.5375 137.071 29.7151C138.18 30.9064 139.641 31.5021 141.456 31.5021C143.284 31.5021 144.746 30.9134 145.84 29.7358C146.935 28.5583 147.482 26.986 147.482 25.0188C147.482 23.0517 146.935 21.4793 145.84 20.3018C144.732 19.1105 143.271 18.5148 141.456 18.5148C139.669 18.5148 138.221 19.1105 137.113 20.3018C136.005 21.4932 135.45 23.0309 135.45 24.9149Z" fill="black"/>
<path d="M155.591 14.8575H160.266V16.6654C161.125 15.7649 161.887 15.1484 162.552 14.816C163.231 14.4696 164.034 14.2965 164.963 14.2965C166.195 14.2965 167.484 14.6982 168.828 15.5017L166.687 19.7823C165.801 19.1451 164.935 18.8265 164.09 18.8265C161.541 18.8265 160.266 20.7521 160.266 24.6032V35.097H155.591V14.8575Z" fill="black"/>
</svg>
