<svg width="18" height="19" viewBox="0 0 18 19" fill="none" xmlns="http://www.w3.org/2000/svg">
<path d="M6.75 10.4375C6.43934 10.4375 6.1875 10.6894 6.1875 11C6.1875 11.3106 6.43934 11.5625 6.75 11.5625V10.4375ZM11.25 11.5625C11.5606 11.5625 11.8125 11.3106 11.8125 11C11.8125 10.6894 11.5606 10.4375 11.25 10.4375V11.5625ZM10.6875 4.25C10.6875 4.56066 10.9394 4.8125 11.25 4.8125C11.5606 4.8125 11.8125 4.56066 11.8125 4.25H10.6875ZM11.8125 2C11.8125 1.68934 11.5606 1.4375 11.25 1.4375C10.9394 1.4375 10.6875 1.68934 10.6875 2H11.8125ZM6.1875 4.25C6.1875 4.56066 6.43934 4.8125 6.75 4.8125C7.06066 4.8125 7.3125 4.56066 7.3125 4.25H6.1875ZM7.3125 2C7.3125 1.68934 7.06066 1.4375 6.75 1.4375C6.43934 1.4375 6.1875 1.68934 6.1875 2H7.3125ZM9 16.4375C7.5813 16.4375 6.56249 16.4368 5.77353 16.3512C4.9951 16.2669 4.50744 16.1055 4.12643 15.8287L3.46517 16.7388C4.06992 17.1783 4.77821 17.375 5.65236 17.4697C6.51599 17.5633 7.60635 17.5625 9 17.5625V16.4375ZM1.6875 10.25C1.6875 11.6437 1.68673 12.734 1.7803 13.5976C1.87501 14.4718 2.07174 15.1801 2.51111 15.7849L3.42126 15.1236C3.14444 14.7426 2.98309 14.2549 2.89875 13.4765C2.81327 12.6875 2.8125 11.6687 2.8125 10.25H1.6875ZM4.12643 15.8287C3.85583 15.6321 3.61787 15.3942 3.42126 15.1236L2.51111 15.7849C2.77711 16.1509 3.09907 16.4729 3.46517 16.7388L4.12643 15.8287ZM14.5787 15.1236C14.3821 15.3942 14.1442 15.6321 13.8736 15.8287L14.5349 16.7388C14.9009 16.4729 15.2229 16.1509 15.4888 15.7849L14.5787 15.1236ZM13.8736 4.67126C14.1442 4.86786 14.3821 5.10583 14.5787 5.37643L15.4888 4.71517C15.2229 4.34907 14.9009 4.02711 14.5349 3.76111L13.8736 4.67126ZM3.46517 3.76111C3.09907 4.02711 2.77711 4.34907 2.51111 4.71517L3.42126 5.37643C3.61787 5.10583 3.85583 4.86786 4.12643 4.67126L3.46517 3.76111ZM14.3254 11.9906C12.4801 12.2829 11.0329 13.7301 10.7406 15.5754L11.8517 15.7514C12.0678 14.3874 13.1374 13.3178 14.5014 13.1017L14.3254 11.9906ZM6.75 11.5625H11.25V10.4375H6.75V11.5625ZM15.7283 11.9375C15.0666 11.9375 14.6684 11.9363 14.3254 11.9906L14.5014 13.1017C14.7352 13.0647 15.0253 13.0625 15.7283 13.0625V11.9375ZM15.1875 10.25C15.1875 11.1298 15.1874 11.8592 15.1661 12.4807L16.2905 12.5193C16.3126 11.8743 16.3125 11.1236 16.3125 10.25H15.1875ZM15.1661 12.4807C15.1185 13.8719 14.9632 14.5944 14.5787 15.1236L15.4888 15.7849C16.0903 14.9571 16.2423 13.9243 16.2905 12.5193L15.1661 12.4807ZM11.8125 16.9783C11.8125 16.2753 11.8147 15.9852 11.8517 15.7514L10.7406 15.5754C10.6863 15.9184 10.6875 16.3166 10.6875 16.9783H11.8125ZM9 17.5625C9.8736 17.5625 10.6243 17.5626 11.2693 17.5405L11.2307 16.4161C10.6092 16.4374 9.87982 16.4375 9 16.4375V17.5625ZM11.2693 17.5405C12.6743 17.4923 13.7071 17.3403 14.5349 16.7388L13.8736 15.8287C13.3444 16.2132 12.6219 16.3685 11.2307 16.4161L11.2693 17.5405ZM2.8125 10.25C2.8125 9.37017 2.81257 8.6408 2.83387 8.01927L1.70953 7.98074C1.68743 8.62565 1.6875 9.3764 1.6875 10.25H2.8125ZM2.83387 8.01927C2.88153 6.62806 3.0368 5.9056 3.42126 5.37643L2.51111 4.71517C1.90973 5.54293 1.75766 6.57565 1.70953 7.98074L2.83387 8.01927ZM2.2717 8.5625H15.7283V7.4375H2.2717V8.5625ZM16.3125 10.25C16.3125 9.3764 16.3126 8.62565 16.2905 7.98074L15.1661 8.01927C15.1874 8.6408 15.1875 9.37017 15.1875 10.25H16.3125ZM16.2905 7.98074C16.2423 6.57565 16.0903 5.54293 15.4888 4.71517L14.5787 5.37643C14.9632 5.9056 15.1185 6.62806 15.1661 8.01927L16.2905 7.98074ZM11.8125 4.25V3.5217H10.6875V4.25H11.8125ZM11.8125 3.5217V2H10.6875V3.5217H11.8125ZM9 4.0625C9.87982 4.0625 10.6092 4.06257 11.2307 4.08387L11.2693 2.95953C10.6243 2.93743 9.8736 2.9375 9 2.9375V4.0625ZM11.2307 4.08387C12.6219 4.13153 13.3444 4.2868 13.8736 4.67126L14.5349 3.76111C13.7071 3.15972 12.6743 3.00767 11.2693 2.95953L11.2307 4.08387ZM7.3125 4.25V3.5217H6.1875V4.25H7.3125ZM7.3125 3.5217V2H6.1875V3.5217H7.3125ZM9 2.9375C8.1264 2.9375 7.37568 2.93743 6.73074 2.95953L6.76926 4.08387C7.39084 4.06257 8.12017 4.0625 9 4.0625V2.9375ZM6.73074 2.95953C5.32565 3.00767 4.29293 3.15972 3.46517 3.76111L4.12643 4.67126C4.6556 4.2868 5.37806 4.13153 6.76926 4.08387L6.73074 2.95953Z" fill="#4D4D4D"/>
</svg>
