<svg width="21" height="20" viewBox="0 0 21 20" fill="none" xmlns="http://www.w3.org/2000/svg">
<g id="fluent:drink-coffee-20-regular">
<path id="Vector" d="M5.5 2.5C5.5 2.36739 5.44732 2.24021 5.35355 2.14645C5.25979 2.05268 5.13261 2 5 2C4.86739 2 4.74022 2.05268 4.64645 2.14645C4.55268 2.24021 4.5 2.36739 4.5 2.5C4.5 3.502 5.186 4.015 5.66 4.37L5.7 4.4C6.226 4.794 6.5 5.03 6.5 5.5C6.5 5.63261 6.55268 5.75979 6.64645 5.85355C6.74022 5.94732 6.86739 6 7 6C7.13261 6 7.25979 5.94732 7.35355 5.85355C7.44732 5.75979 7.5 5.63261 7.5 5.5C7.5 4.498 6.814 3.985 6.34 3.63L6.3 3.6C5.774 3.206 5.5 2.97 5.5 2.5ZM15.5 7.935V9H16.5C17.2956 9 18.0587 9.31607 18.6213 9.87868C19.1839 10.4413 19.5 11.2044 19.5 12C19.5 12.7956 19.1839 13.5587 18.6213 14.1213C18.0587 14.6839 17.2956 15 16.5 15H14.697C14.0368 16.1443 13.0174 17.0387 11.7969 17.5444C10.5765 18.0501 9.22326 18.1389 7.9472 17.7971C6.67113 17.4552 5.54357 16.7017 4.73947 15.6535C3.93537 14.6053 3.49968 13.3211 3.5 12V7.935C3.5 7.419 3.919 7 4.435 7H14.565C15.082 7 15.5 7.419 15.5 7.935ZM4.5 8V12C4.5 13.3261 5.02678 14.5979 5.96447 15.5355C6.90215 16.4732 8.17392 17 9.5 17C10.8261 17 12.0979 16.4732 13.0355 15.5355C13.9732 14.5979 14.5 13.3261 14.5 12V8H4.5ZM15.5 12C15.5009 12.6812 15.3856 13.3576 15.159 14H16.5C17.0304 14 17.5391 13.7893 17.9142 13.4142C18.2893 13.0391 18.5 12.5304 18.5 12C18.5 11.4696 18.2893 10.9609 17.9142 10.5858C17.5391 10.2107 17.0304 10 16.5 10H15.5V12ZM8 2C8.13261 2 8.25979 2.05268 8.35355 2.14645C8.44732 2.24021 8.5 2.36739 8.5 2.5C8.5 2.97 8.774 3.206 9.3 3.6L9.34 3.63C9.814 3.985 10.5 4.498 10.5 5.5C10.5 5.63261 10.4473 5.75979 10.3536 5.85355C10.2598 5.94732 10.1326 6 10 6C9.86739 6 9.74021 5.94732 9.64645 5.85355C9.55268 5.75979 9.5 5.63261 9.5 5.5C9.5 5.03 9.226 4.794 8.7 4.4L8.66 4.37C8.186 4.015 7.5 3.502 7.5 2.5C7.5 2.36739 7.55268 2.24021 7.64645 2.14645C7.74021 2.05268 7.86739 2 8 2ZM11.5 2.5C11.5 2.36739 11.4473 2.24021 11.3536 2.14645C11.2598 2.05268 11.1326 2 11 2C10.8674 2 10.7402 2.05268 10.6464 2.14645C10.5527 2.24021 10.5 2.36739 10.5 2.5C10.5 3.502 11.186 4.015 11.66 4.37L11.7 4.4C12.226 4.794 12.5 5.03 12.5 5.5C12.5 5.63261 12.5527 5.75979 12.6464 5.85355C12.7402 5.94732 12.8674 6 13 6C13.1326 6 13.2598 5.94732 13.3536 5.85355C13.4473 5.75979 13.5 5.63261 13.5 5.5C13.5 4.498 12.814 3.985 12.34 3.63L12.3 3.6C11.774 3.206 11.5 2.97 11.5 2.5Z" fill="white"/>
</g>
</svg>
