<svg width="24" height="24" viewBox="0 0 24 24" fill="none" xmlns="http://www.w3.org/2000/svg">
<path d="M5.25 8C5.25 7.27065 5.53973 6.57118 6.05546 6.05546C6.57118 5.53973 7.27065 5.25 8 5.25C8.72935 5.25 9.42882 5.53973 9.94454 6.05546C10.4603 6.57118 10.75 7.27065 10.75 8C10.75 8.72935 10.4603 9.42882 9.94454 9.94454C9.42882 10.4603 8.72935 10.75 8 10.75C7.27065 10.75 6.57118 10.4603 6.05546 9.94454C5.53973 9.42882 5.25 8.72935 5.25 8ZM8 4C6.93913 4 5.92172 4.42143 5.17157 5.17157C4.42143 5.92172 4 6.93913 4 8C4 9.06087 4.42143 10.0783 5.17157 10.8284C5.92172 11.5786 6.93913 12 8 12C9.06087 12 10.0783 11.5786 10.8284 10.8284C11.5786 10.0783 12 9.06087 12 8C12 6.93913 11.5786 5.92172 10.8284 5.17157C10.0783 4.42143 9.06087 4 8 4ZM15.25 9C15.25 8.53587 15.4344 8.09075 15.7626 7.76256C16.0908 7.43437 16.5359 7.25 17 7.25C17.4641 7.25 17.9092 7.43437 18.2374 7.76256C18.5656 8.09075 18.75 8.53587 18.75 9C18.75 9.46413 18.5656 9.90925 18.2374 10.2374C17.9092 10.5656 17.4641 10.75 17 10.75C16.5359 10.75 16.0908 10.5656 15.7626 10.2374C15.4344 9.90925 15.25 9.46413 15.25 9ZM17 6C16.2044 6 15.4413 6.31607 14.8787 6.87868C14.3161 7.44129 14 8.20435 14 9C14 9.79565 14.3161 10.5587 14.8787 11.1213C15.4413 11.6839 16.2044 12 17 12C17.7956 12 18.5587 11.6839 19.1213 11.1213C19.6839 10.5587 20 9.79565 20 9C20 8.20435 19.6839 7.44129 19.1213 6.87868C18.5587 6.31607 17.7956 6 17 6ZM17 19.5C15.912 19.5 15.039 19.324 14.342 19.039L14.435 18.919C14.682 18.5935 14.8715 18.2675 15.0165 17.9585C15.5265 18.136 16.1745 18.25 16.9995 18.25C19.1375 18.25 20.086 17.4835 20.531 16.8345C20.7844 16.4616 20.9432 16.0326 20.9935 15.5845C20.9964 15.5552 20.9984 15.5259 20.9995 15.4965V15.375C20.9995 15.03 20.7195 14.75 20.3745 14.75H15.4315C15.3288 14.2879 15.1132 13.8584 14.804 13.5H20.375C20.8723 13.5 21.3492 13.6975 21.7008 14.0492C22.0525 14.4008 22.25 14.8777 22.25 15.375V15.5235L22.2485 15.5665C22.2465 15.6015 22.2435 15.6485 22.2385 15.706C22.1676 16.3639 21.9356 16.9942 21.563 17.541C20.8505 18.579 19.4875 19.5 17 19.5ZM3.375 13.5C2.87772 13.5 2.40081 13.6975 2.04917 14.0492C1.69754 14.4008 1.5 14.8777 1.5 15.375V16.0265L1.502 16.075C1.504 16.115 1.508 16.168 1.515 16.234C1.5295 16.365 1.557 16.545 1.611 16.759C1.75429 17.3227 2.00934 17.8518 2.361 18.315C3.2395 19.473 4.913 20.5 8 20.5C11.0875 20.5 12.761 19.473 13.6385 18.315C13.9904 17.8517 14.2456 17.3224 14.389 16.7585C14.443 16.545 14.4705 16.365 14.485 16.2335C14.4926 16.1647 14.4976 16.0957 14.5 16.0265V15.375C14.5 15.1288 14.4515 14.885 14.3573 14.6575C14.263 14.43 14.1249 14.2233 13.9508 14.0492C13.7767 13.8751 13.57 13.737 13.3425 13.6427C13.115 13.5485 12.8712 13.5 12.625 13.5H3.375ZM2.7505 16.012L2.75 15.996V15.375C2.75 15.03 3.03 14.75 3.375 14.75H12.625C12.97 14.75 13.25 15.03 13.25 15.375V15.996L13.2495 16.012C13.2382 16.1605 13.2141 16.3077 13.1775 16.452C13.0752 16.8534 12.8932 17.2302 12.6425 17.56C12.0515 18.34 10.7875 19.25 8 19.25C5.2125 19.25 3.9485 18.34 3.3575 17.56C3.10682 17.2304 2.92489 16.8538 2.8225 16.4525C2.78592 16.308 2.76183 16.1606 2.7505 16.012Z" fill="black"/>
</svg>
