<svg width="34" height="34" viewBox="0 0 34 34" fill="none" xmlns="http://www.w3.org/2000/svg">
<path d="M3 2C3 0.89543 3.89543 0 5 0H29C30.1046 0 31 0.895431 31 2V13H3V2Z" fill="#F25922"/>
<path d="M12.3086 7.9248V2.89062H13.2461V7.9248C13.2461 8.39355 13.1501 8.78906 12.958 9.11133C12.766 9.43359 12.5007 9.67936 12.1621 9.84863C11.8268 10.0146 11.4411 10.0977 11.0049 10.0977C10.5687 10.0977 10.1813 10.0228 9.84277 9.87305C9.50423 9.72331 9.23893 9.49544 9.04688 9.18945C8.85482 8.88346 8.75879 8.49772 8.75879 8.03223H9.70117C9.70117 8.33171 9.75651 8.57747 9.86719 8.76953C9.97786 8.96159 10.1309 9.10319 10.3262 9.19434C10.5247 9.28548 10.751 9.33105 11.0049 9.33105C11.2523 9.33105 11.4736 9.27897 11.6689 9.1748C11.8675 9.06738 12.0238 8.90951 12.1377 8.70117C12.2516 8.48958 12.3086 8.23079 12.3086 7.9248ZM17.8213 9.09668V6.37695C17.8213 6.16862 17.779 5.98796 17.6943 5.83496C17.613 5.67871 17.4893 5.55827 17.3232 5.47363C17.1572 5.389 16.9521 5.34668 16.708 5.34668C16.4801 5.34668 16.2799 5.38574 16.1074 5.46387C15.9382 5.54199 15.8047 5.64453 15.707 5.77148C15.6126 5.89844 15.5654 6.03516 15.5654 6.18164H14.6621C14.6621 5.99284 14.7109 5.80566 14.8086 5.62012C14.9062 5.43457 15.0462 5.26693 15.2285 5.11719C15.4141 4.96419 15.6354 4.84375 15.8926 4.75586C16.153 4.66471 16.4427 4.61914 16.7617 4.61914C17.1458 4.61914 17.4844 4.68424 17.7773 4.81445C18.0736 4.94466 18.3047 5.1416 18.4707 5.40527C18.64 5.66569 18.7246 5.99284 18.7246 6.38672V8.84766C18.7246 9.02344 18.7393 9.21061 18.7686 9.40918C18.8011 9.60775 18.8483 9.77865 18.9102 9.92188V10H17.9678C17.9222 9.89583 17.8864 9.75749 17.8604 9.58496C17.8343 9.40918 17.8213 9.24642 17.8213 9.09668ZM17.9775 6.79688L17.9873 7.43164H17.0742C16.8171 7.43164 16.5876 7.4528 16.3857 7.49512C16.1839 7.53418 16.0146 7.5944 15.8779 7.67578C15.7412 7.75716 15.637 7.8597 15.5654 7.9834C15.4938 8.10384 15.458 8.24544 15.458 8.4082C15.458 8.57422 15.4954 8.72559 15.5703 8.8623C15.6452 8.99902 15.7575 9.10807 15.9072 9.18945C16.0602 9.26758 16.2474 9.30664 16.4688 9.30664C16.7454 9.30664 16.9896 9.24805 17.2012 9.13086C17.4128 9.01367 17.5804 8.87044 17.7041 8.70117C17.8311 8.5319 17.8994 8.36751 17.9092 8.20801L18.2949 8.64258C18.2721 8.7793 18.2103 8.93066 18.1094 9.09668C18.0085 9.2627 17.8734 9.4222 17.7041 9.5752C17.5381 9.72493 17.3395 9.85026 17.1084 9.95117C16.8805 10.0488 16.6234 10.0977 16.3369 10.0977C15.9788 10.0977 15.6647 10.0277 15.3945 9.8877C15.1276 9.74772 14.9193 9.56055 14.7695 9.32617C14.623 9.08854 14.5498 8.82324 14.5498 8.53027C14.5498 8.24707 14.6051 7.99805 14.7158 7.7832C14.8265 7.5651 14.986 7.38444 15.1943 7.24121C15.4027 7.09473 15.6533 6.98405 15.9463 6.90918C16.2393 6.83431 16.5664 6.79688 16.9277 6.79688H17.9775ZM21.0488 5.84473V10H20.1455V4.7168H21L21.0488 5.84473ZM20.834 7.1582L20.458 7.14355C20.4613 6.78223 20.515 6.44857 20.6191 6.14258C20.7233 5.83333 20.8698 5.56478 21.0586 5.33691C21.2474 5.10905 21.472 4.93327 21.7324 4.80957C21.9961 4.68262 22.2874 4.61914 22.6064 4.61914C22.8669 4.61914 23.1012 4.65495 23.3096 4.72656C23.5179 4.79492 23.6953 4.9056 23.8418 5.05859C23.9915 5.21159 24.1055 5.41016 24.1836 5.6543C24.2617 5.89518 24.3008 6.18978 24.3008 6.53809V10H23.3926V6.52832C23.3926 6.25163 23.3519 6.03027 23.2705 5.86426C23.1891 5.69499 23.0703 5.57292 22.9141 5.49805C22.7578 5.41992 22.5658 5.38086 22.3379 5.38086C22.1133 5.38086 21.9082 5.42806 21.7227 5.52246C21.5404 5.61686 21.3825 5.74707 21.249 5.91309C21.1188 6.0791 21.0163 6.26953 20.9414 6.48438C20.8698 6.69596 20.834 6.92057 20.834 7.1582Z" fill="white"/>
<path d="M3 13H31V33C31 33.5523 30.5523 34 30 34H4C3.44771 34 3 33.5523 3 33V13Z" fill="#E6E6E6"/>
<path d="M18.1953 17.5625V29H16.75V19.3672L13.8359 20.4297V19.125L17.9688 17.5625H18.1953Z" fill="black"/>
</svg>
