<svg width="30" height="30" viewBox="0 0 30 30" fill="none" xmlns="http://www.w3.org/2000/svg">
<g id="ion:document-text-outline">
<rect width="30" height="30" fill="#ECF7F4"/>
<path id="Vector" d="M24.375 12.9639V24.375C24.375 25.1209 24.0787 25.8363 23.5512 26.3637C23.0238 26.8912 22.3084 27.1875 21.5625 27.1875H8.4375C7.69158 27.1875 6.97621 26.8912 6.44876 26.3637C5.92132 25.8363 5.625 25.1209 5.625 24.375V5.625C5.625 4.87908 5.92132 4.16371 6.44876 3.63626C6.97621 3.10882 7.69158 2.8125 8.4375 2.8125H14.2236C14.7207 2.81258 15.1975 3.01005 15.549 3.36152L23.826 11.6385C24.1774 11.99 24.3749 12.4668 24.375 12.9639Z" fill="#3CAB88" stroke="#ECF7F4" stroke-width="1.5" stroke-linejoin="round"/>
<g id="Vector_2">
<path d="M15 3.28125V10.3125C15 10.8098 15.1975 11.2867 15.5492 11.6383C15.9008 11.99 16.3777 12.1875 16.875 12.1875H23.9062M10.3125 16.875H19.6875H10.3125ZM10.3125 21.5625H19.6875H10.3125Z" fill="#3CAB88"/>
<path d="M15 3.28125V10.3125C15 10.8098 15.1975 11.2867 15.5492 11.6383C15.9008 11.99 16.3777 12.1875 16.875 12.1875H23.9062M10.3125 16.875H19.6875M10.3125 21.5625H19.6875" stroke="#ECF7F4" stroke-width="1.5" stroke-linecap="round" stroke-linejoin="round"/>
</g>
</g>
</svg>
