<svg width="30" height="30" viewBox="0 0 30 30" fill="none" xmlns="http://www.w3.org/2000/svg">
<g id="keyboard-svgrepo-com 1">
<path id="Vector" opacity="0.5" d="M20 6.25H10C6.46446 6.25 4.6967 6.25 3.59835 7.34835C2.5 8.4467 2.5 10.2145 2.5 13.75V16.25C2.5 19.7855 2.5 21.5532 3.59835 22.6516C4.6967 23.75 6.46446 23.75 10 23.75H20C23.5355 23.75 25.3032 23.75 26.4016 22.6516C27.5 21.5532 27.5 19.7855 27.5 16.25V13.75C27.5 10.2145 27.5 8.4467 26.4016 7.34835C25.3032 6.25 23.5355 6.25 20 6.25Z" fill="#68CAAB"/>
<path id="Vector_2" d="M7.5 12.5C8.19035 12.5 8.75 11.9404 8.75 11.25C8.75 10.5597 8.19035 10 7.5 10C6.80965 10 6.25 10.5597 6.25 11.25C6.25 11.9404 6.80965 12.5 7.5 12.5Z" fill="#3CAB88"/>
<path id="Vector_3" d="M7.5 16.25C8.19035 16.25 8.75 15.6904 8.75 15C8.75 14.3096 8.19035 13.75 7.5 13.75C6.80965 13.75 6.25 14.3096 6.25 15C6.25 15.6904 6.80965 16.25 7.5 16.25Z" fill="#3CAB88"/>
<path id="Vector_4" d="M11.25 16.25C11.9404 16.25 12.5 15.6904 12.5 15C12.5 14.3096 11.9404 13.75 11.25 13.75C10.5597 13.75 10 14.3096 10 15C10 15.6904 10.5597 16.25 11.25 16.25Z" fill="#3CAB88"/>
<path id="Vector_5" d="M11.25 12.5C11.9404 12.5 12.5 11.9404 12.5 11.25C12.5 10.5597 11.9404 10 11.25 10C10.5597 10 10 10.5597 10 11.25C10 11.9404 10.5597 12.5 11.25 12.5Z" fill="#3CAB88"/>
<path id="Vector_6" d="M15 12.5C15.6904 12.5 16.25 11.9404 16.25 11.25C16.25 10.5597 15.6904 10 15 10C14.3096 10 13.75 10.5597 13.75 11.25C13.75 11.9404 14.3096 12.5 15 12.5Z" fill="#3CAB88"/>
<path id="Vector_7" d="M15 16.25C15.6904 16.25 16.25 15.6904 16.25 15C16.25 14.3096 15.6904 13.75 15 13.75C14.3096 13.75 13.75 14.3096 13.75 15C13.75 15.6904 14.3096 16.25 15 16.25Z" fill="#3CAB88"/>
<path id="Vector_8" d="M18.75 12.5C19.4404 12.5 20 11.9404 20 11.25C20 10.5597 19.4404 10 18.75 10C18.0596 10 17.5 10.5597 17.5 11.25C17.5 11.9404 18.0596 12.5 18.75 12.5Z" fill="#3CAB88"/>
<path id="Vector_9" d="M18.75 16.25C19.4404 16.25 20 15.6904 20 15C20 14.3096 19.4404 13.75 18.75 13.75C18.0596 13.75 17.5 14.3096 17.5 15C17.5 15.6904 18.0596 16.25 18.75 16.25Z" fill="#3CAB88"/>
<path id="Vector_10" d="M22.5 12.5C23.1904 12.5 23.75 11.9404 23.75 11.25C23.75 10.5597 23.1904 10 22.5 10C21.8096 10 21.25 10.5597 21.25 11.25C21.25 11.9404 21.8096 12.5 22.5 12.5Z" fill="#3CAB88"/>
<path id="Vector_11" d="M22.5 16.25C23.1904 16.25 23.75 15.6904 23.75 15C23.75 14.3096 23.1904 13.75 22.5 13.75C21.8096 13.75 21.25 14.3096 21.25 15C21.25 15.6904 21.8096 16.25 22.5 16.25Z" fill="#3CAB88"/>
<path id="Vector_12" d="M22.1875 20C22.1875 20.5178 21.7677 20.9375 21.25 20.9375H8.75C8.23224 20.9375 7.8125 20.5178 7.8125 20C7.8125 19.4822 8.23224 19.0625 8.75 19.0625H21.25C21.7677 19.0625 22.1875 19.4822 22.1875 20Z" fill="#3CAB88"/>
</g>
</svg>
