<svg width="30" height="30" viewBox="0 0 30 30" fill="none" xmlns="http://www.w3.org/2000/svg">
<g id="laptop-3-svgrepo-com 1">
<path id="Vector" opacity="0.5" d="M18.125 2.5H11.875C8.33946 2.5 6.5717 2.5 5.47335 3.59835C4.375 4.6967 4.375 6.46446 4.375 10V14.375C4.375 16.732 4.375 17.9105 5.10724 18.6427C5.83946 19.375 7.01797 19.375 9.375 19.375H20.625C22.982 19.375 24.1605 19.375 24.8927 18.6427C25.625 17.9105 25.625 16.732 25.625 14.375V10C25.625 6.46446 25.625 4.6967 24.5266 3.59835C23.4282 2.5 21.6605 2.5 18.125 2.5Z" fill="#68CAAB"/>
<path id="Vector_2" d="M6.25 27.5H23.75C25.8211 27.5 27.5 25.8211 27.5 23.75V22.5C27.5 21.8096 26.9404 21.25 26.25 21.25H20.8334C20.2924 21.25 19.7661 21.4255 19.3334 21.75L18.1666 22.625C17.7339 22.9495 17.2076 23.125 16.6666 23.125H13.3334C12.7924 23.125 12.2661 22.9495 11.8333 22.625L10.6667 21.75C10.2339 21.4255 9.70759 21.25 9.16666 21.25H3.75C3.05965 21.25 2.5 21.8096 2.5 22.5V23.75C2.5 25.8211 4.17894 27.5 6.25 27.5Z" fill="#3CAB88"/>
</g>
</svg>
