<svg width="24" height="24" viewBox="0 0 24 24" fill="none" xmlns="http://www.w3.org/2000/svg">
<g id="category-1-svgrepo-com 1">
<path id="Vector" d="M8.84864 3.2812L8.88832 3.29102L8.9288 3.29674C9.24058 3.34083 9.4653 3.60223 9.4653 3.91877V3.96906L9.4716 4.01895C9.57559 4.84279 9.7714 6.40392 9.7714 7.45412C9.7714 8.53232 9.67133 9.8898 9.48115 10.831L9.4767 10.853L9.4735 10.8752C9.41302 11.2945 9.12995 11.5658 8.83212 11.6107C8.54997 11.6457 8.26981 11.6876 7.99517 11.7286C7.38534 11.8197 6.80269 11.9067 6.28571 11.9067C5.50561 11.9067 4.46516 11.8077 3.85045 11.6338L3.79831 11.619L3.74466 11.6114C3.44834 11.5695 3.16537 11.3033 3.10011 10.8897C3.07279 10.6211 3.04016 10.3363 3.00663 10.0436C2.90726 9.17618 2.8 8.23998 2.8 7.45412C2.8 6.69907 2.95027 5.71293 3.07663 4.8837C3.12468 4.56835 3.16927 4.2757 3.20083 4.02708C3.26353 3.60863 3.54838 3.33893 3.84671 3.29674L3.88719 3.29102L3.92687 3.2812C4.73196 3.08196 5.67369 2.90059 6.38776 2.90059C7.10182 2.90059 8.04355 3.08196 8.84864 3.2812Z" fill="white" stroke="#949494" stroke-width="1.6"/>
<path id="Vector_2" d="M20.0473 12.3658L20.0994 12.3805L20.153 12.3881C20.4527 12.4305 20.7388 12.7025 20.7997 13.1244L20.8029 13.1466L20.8073 13.1686C20.9975 14.1099 21.0977 15.4673 21.0977 16.5455C21.0977 17.6236 20.9975 18.9812 20.8073 19.9224L20.8029 19.9444L20.7997 19.9666C20.7392 20.3859 20.4561 20.6572 20.1583 20.7021C19.8759 20.7372 19.5954 20.779 19.3205 20.8201C18.711 20.911 18.1287 20.998 17.612 20.998C16.8318 20.998 15.7913 20.899 15.1766 20.7252L15.1245 20.7104L15.0709 20.7028C14.7746 20.661 14.4916 20.3946 14.4264 19.9811C14.3991 19.7127 14.3664 19.4281 14.3329 19.1357C14.2335 18.2681 14.1262 17.3315 14.1262 16.5455C14.1262 15.4673 14.2263 14.1099 14.4165 13.1686L14.421 13.1466L14.4242 13.1244C14.4847 12.705 14.7678 12.4337 15.0655 12.3889C15.348 12.3538 15.6284 12.3119 15.9033 12.2709C16.5128 12.1799 17.0951 12.093 17.612 12.093C18.392 12.093 19.4325 12.1919 20.0473 12.3658Z" fill="white" stroke="#949494" stroke-width="1.6"/>
<path id="Vector_3" d="M8.9507 16.4126L8.98142 16.4202L9.01265 16.4253C9.32374 16.4767 9.5791 16.6619 9.69741 17.0585C9.89848 17.8559 9.9755 18.2728 9.9755 18.6663C9.9755 19.0669 9.89419 19.588 9.70617 20.2439C9.5764 20.613 9.28336 20.8565 9.02487 20.9051C8.76659 20.9374 8.50862 20.9755 8.25196 21.0134C7.61747 21.1072 6.991 21.1997 6.38776 21.1997C5.52958 21.1997 4.59055 21.1057 3.85602 20.9277C3.43814 20.7832 3.17893 20.54 3.07302 20.2539C2.87574 19.4696 2.8 19.0566 2.8 18.6663C2.8 18.2659 2.88134 17.7446 3.06936 17.0887C3.19913 16.7196 3.4922 16.4761 3.75064 16.4275C4.00872 16.3953 4.26651 16.3572 4.523 16.3193C5.15766 16.2256 5.78436 16.133 6.38776 16.133C7.25809 16.133 8.21164 16.2297 8.9507 16.4126Z" fill="white" stroke="#949494" stroke-width="1.6"/>
<path id="Vector_4" d="M15.0493 7.58705L15.0185 7.57945L14.9873 7.5743C14.6762 7.52297 14.4209 7.33777 14.3026 6.94112C14.1015 6.1437 14.0245 5.72691 14.0245 5.33333C14.0245 4.93281 14.1058 4.41159 14.2938 3.75574C14.4236 3.38662 14.7167 3.14315 14.9751 3.09452C15.2332 3.06227 15.4911 3.02419 15.7476 2.98629C16.3823 2.89256 17.0089 2.8 17.6122 2.8C18.4704 2.8 19.4094 2.89402 20.1439 3.07197C20.5618 3.21642 20.8211 3.4597 20.927 3.74578C21.1243 4.53004 21.2 4.9431 21.2 5.33333C21.2 5.73384 21.1187 6.25507 20.9307 6.91092C20.8009 7.28002 20.5078 7.52351 20.2493 7.57214C19.9913 7.60438 19.7335 7.64245 19.4771 7.68033C18.8424 7.77409 18.2156 7.86667 17.6122 7.86667C16.7419 7.86667 15.7884 7.76996 15.0493 7.58705Z" fill="white" stroke="#949494" stroke-width="1.6"/>
</g>
</svg>
