<svg width="22" height="23" viewBox="0 0 22 23" fill="none" xmlns="http://www.w3.org/2000/svg">
<path id="Vector" opacity="0.4" d="M20.7866 16.32L19.4532 14.1067C19.1732 13.6134 18.9199 12.68 18.9199 12.1334V8.76003C18.9199 4.41337 15.3866 0.866699 11.0266 0.866699C6.66663 0.866699 3.1333 4.41337 3.1333 8.76003V12.1334C3.1333 12.68 2.87996 13.6134 2.59996 14.0934L1.2533 16.32C0.719964 17.2134 0.599965 18.2 0.933298 19.1067C1.2533 20 2.0133 20.6934 2.99996 21.0267C5.58663 21.9067 8.30663 22.3334 11.0266 22.3334C13.7466 22.3334 16.4666 21.9067 19.0532 21.04C19.9866 20.7334 20.7066 20.0267 21.0532 19.1067C21.3999 18.1867 21.3066 17.1734 20.7866 16.32Z" fill="black"/>
</svg>
